<svg xmlns="http://www.w3.org/2000/svg" xmlns:xlink="http://www.w3.org/1999/xlink" width="1440" height="276" viewBox="0 0 1440 276"><defs><style>.cls-1,.cls-15,.cls-16{fill:none;}.cls-2{fill:#e9e611;}.cls-3{isolation:isolate;}.cls-4{fill:#004779;}.cls-5{fill:#e6f1f4;}.cls-13,.cls-6{fill:#fff;}.cls-7{fill:#e8e73e;}.cls-8{clip-path:url(#clip-path);}.cls-9{clip-path:url(#clip-path-2);}.cls-10{fill:#002efc;}.cls-11{fill:#eef8fe;}.cls-12{fill:#69cbee;}.cls-13,.cls-15,.cls-16{stroke:#004779;stroke-linecap:round;stroke-linejoin:round;}.cls-13,.cls-15{stroke-width:0.87px;}.cls-14{clip-path:url(#clip-path-3);}.cls-16{stroke-width:1.5px;}.cls-17{clip-path:url(#clip-path-4);}.cls-18{clip-path:url(#clip-path-5);}</style><clipPath id="clip-path"><rect class="cls-1" x="224.08" y="116.4" width="16.63" height="9.81"/></clipPath><clipPath id="clip-path-2"><polygon class="cls-1" points="229.11 121.14 229.61 135.19 239.25 135.19 238.57 121.71 229.11 121.14"/></clipPath><clipPath id="clip-path-3"><polygon class="cls-1" points="517.5 105.39 518.7 138.83 541.63 138.83 540.01 106.73 517.5 105.39"/></clipPath><clipPath id="clip-path-4"><circle class="cls-1" cx="1116.54" cy="123.67" r="33.89"/></clipPath><clipPath id="clip-path-5"><polygon class="cls-1" points="1104.94 107.22 1109.22 156.86 1140.76 156.86 1138.35 109.2 1104.94 107.22"/></clipPath></defs><g id="_210614_NS-N1757_Convenience2021_HP_2nd_US_XL.svg" data-name=" 210614 NS-N1757 Convenience2021 HP 2nd US XL.svg"><g id="HEADLINE"><rect class="cls-2" x="677" y="21" width="324" height="33"/><g id="Get_it_today_with_these_fast_worry-free_options_" data-name="Get it today with these fast worry-free options "><g class="cls-3"><path class="cls-4" d="M319.12,46.36a6.42,6.42,0,0,1-5.79,3c-4.93,0-8.32-4-8.32-9.87a16.4,16.4,0,0,1,2.24-8.29c1.94-3.22,4.67-4.9,8-4.9A8,8,0,0,1,321.52,29a9.59,9.59,0,0,1,1.81,3.49l-2.37.82c-1-3.25-2.92-4.93-5.72-4.93-2.57,0-4.7,1.61-6,4.5a17.4,17.4,0,0,0-1.42,6.81c0,4.58,2.24,7.47,5.76,7.47a5.74,5.74,0,0,0,5.23-3.52A12,12,0,0,0,319.85,40h-5.73l.36-2.14h8.33L320.93,49h-1.48Z"/><path class="cls-4" d="M339.68,45c-1.84,3-4,4.27-7,4.27-4.21,0-6.94-3-6.94-7.47,0-5.59,3.62-9.8,8.39-9.8,4.05,0,6.48,2.67,6.48,7a10.39,10.39,0,0,1-.16,1.87h-12a12.41,12.41,0,0,0-.1,1.29c0,3,1.71,5,4.35,5,2.1,0,3.25-.76,4.9-3.16ZM338,39l0-.79A3.9,3.9,0,0,0,334,33.89c-2.57,0-4.61,2-5.23,5.1Z"/><path class="cls-4" d="M348.57,49.06c-.36,0-.73.06-1.05.06-2.77,0-4.08-1.15-4.08-3.58a20.62,20.62,0,0,1,.39-3.39l1.28-7.7h-2.46l.33-2h2.53l.66-3.95,2.46-.2-.69,4.15h3.69l-.33,2h-3.69l-1.48,8.82a15.82,15.82,0,0,0-.23,2c0,1.16.76,1.81,2,1.81a12.16,12.16,0,0,0,1.71-.09l.5-.07-.27,2-.46,0Z"/><path class="cls-4" d="M363.7,32.48h2.54L363.5,48.76H361Zm.63-5.66h3.25l-.49,3H363.8Z"/><path class="cls-4" d="M374.46,49.06c-.36,0-.72.06-1,.06-2.77,0-4.08-1.15-4.08-3.58a21.83,21.83,0,0,1,.39-3.39l1.29-7.7h-2.47l.33-2h2.53l.66-3.95,2.47-.2-.7,4.15h3.69l-.33,2h-3.68L372,43.27a14.14,14.14,0,0,0-.23,2c0,1.16.75,1.81,2,1.81a12.29,12.29,0,0,0,1.72-.09l.49-.07-.26,2-.46,0Z"/><path class="cls-4" d="M392.79,49.06c-.37,0-.73.06-1.06.06-2.76,0-4.08-1.15-4.08-3.58a21,21,0,0,1,.4-3.39l1.28-7.7h-2.47l.33-2h2.54l.65-3.95,2.47-.2-.69,4.15h3.68l-.32,2h-3.69l-1.48,8.82a15.82,15.82,0,0,0-.23,2c0,1.16.76,1.81,2,1.81a12.23,12.23,0,0,0,1.71-.09l.49-.07-.26,2-.46,0Z"/><path class="cls-4" d="M404.46,32.08c4,0,6.52,2.9,6.52,7.4,0,5.47-3.62,9.78-8.16,9.78-3.95,0-6.55-3-6.55-7.54C396.27,36.39,399.92,32.08,404.46,32.08ZM403,47.25a4.27,4.27,0,0,0,3.72-2.14A12.15,12.15,0,0,0,408.31,39a5.35,5.35,0,0,0-.82-3.36,3.9,3.9,0,0,0-3.16-1.54,4.41,4.41,0,0,0-3.78,2.2A12.31,12.31,0,0,0,399,42.35C399,45.44,400.45,47.25,403,47.25Z"/><path class="cls-4" d="M424.34,45.54c-1.75,2.7-3.19,3.65-5.63,3.65-3.26,0-5.36-2.7-5.36-6.88a12.85,12.85,0,0,1,1.48-5.89c1.51-2.86,3.65-4.34,6.28-4.34a4.88,4.88,0,0,1,4.74,3.06l1.38-8.32h2.47L426,48.76h-2.27Zm-4.94,1.64c3.09,0,5.76-4,5.76-8.49a4.47,4.47,0,0,0-.86-3,3.79,3.79,0,0,0-3.06-1.58,4.53,4.53,0,0,0-3.94,2.83A14.45,14.45,0,0,0,416,42.71C416,45.47,417.3,47.18,419.4,47.18Z"/><path class="cls-4" d="M441.12,48.76a6.84,6.84,0,0,1,0-.82,8.52,8.52,0,0,1,.3-2.37c-1.71,2.5-3.69,3.65-6.09,3.65a4.89,4.89,0,0,1-5.2-4.87c0-2.33,1.55-4.21,4.22-5.1a18.92,18.92,0,0,1,5.69-.62,12.31,12.31,0,0,1,2.07.06l.36,0A11.23,11.23,0,0,0,442.6,37c0-2-1.32-3.06-3.75-3.06a4.82,4.82,0,0,0-4.68,2.77l-2.4-1c1.25-2.4,3.69-3.72,6.88-3.72,3.85,0,6.54,1.84,6.54,4.44,0,.73-.09,1.19-1.25,8.65a21.23,21.23,0,0,0-.32,3.06c0,.07,0,.3,0,.66Zm-5.37-1.61a6.21,6.21,0,0,0,5-3.06,9.07,9.07,0,0,0,1.39-3.52c-1.32-.07-1.32-.07-2.21-.07a13,13,0,0,0-4.7.66,3.48,3.48,0,0,0-2.37,3.29A2.61,2.61,0,0,0,435.75,47.15Z"/><path class="cls-4" d="M445.29,52.18a6.61,6.61,0,0,0,1.42.17c1.74,0,3-.89,4-2.9l.53-1.12-3.39-15.85h2.56L453,44.85l6.41-12.37h2.17L452.7,49.65a11.13,11.13,0,0,1-2.37,3.45,5.39,5.39,0,0,1-3.79,1.39c-.49,0-.85,0-1.61-.1Z"/><path class="cls-4" d="M470.5,32.48H473l1.81,12.24,5.13-12.24H482l1.94,12.24,5.36-12.24h2.14l-7.27,16.28h-1.88l-2-12.4L475,48.76h-2Z"/><path class="cls-4" d="M494.81,32.48h2.53l-2.73,16.28h-2.53Zm.62-5.66h3.26l-.49,3h-3.29Z"/><path class="cls-4" d="M505.57,49.06c-.36,0-.73.06-1.06.06-2.76,0-4.08-1.15-4.08-3.58a21,21,0,0,1,.4-3.39l1.28-7.7h-2.46l.32-2h2.54l.66-3.95,2.46-.2-.69,4.15h3.69l-.33,2h-3.69l-1.48,8.82a15.82,15.82,0,0,0-.23,2c0,1.16.76,1.81,2,1.81a12.23,12.23,0,0,0,1.71-.09l.5-.07-.27,2-.46,0Z"/><path class="cls-4" d="M513.4,26.82h2.5l-1.48,8.68C516.09,33,517.67,32,519.88,32a4.33,4.33,0,0,1,4.64,4.4,15,15,0,0,1-.27,2.34l-1.67,10h-2.47l1.68-10a12.83,12.83,0,0,0,.19-2A2.57,2.57,0,0,0,519.29,34c-1.68,0-3.26,1.22-4.48,3.39a13.91,13.91,0,0,0-1.48,4.7l-1.12,6.68h-2.5Z"/><path class="cls-4" d="M541.82,49.06c-.36,0-.72.06-1.05.06-2.76,0-4.08-1.15-4.08-3.58a21,21,0,0,1,.4-3.39l1.28-7.7H535.9l.33-2h2.53l.66-3.95,2.47-.2-.69,4.15h3.68l-.33,2h-3.68l-1.48,8.82a15.82,15.82,0,0,0-.23,2c0,1.16.75,1.81,2,1.81a12.23,12.23,0,0,0,1.71-.09l.49-.07-.26,2-.46,0Z"/><path class="cls-4" d="M549.65,26.82h2.5l-1.48,8.68C552.35,33,553.93,32,556.13,32a4.33,4.33,0,0,1,4.64,4.4,16.11,16.11,0,0,1-.26,2.34l-1.68,10h-2.47l1.68-10a13,13,0,0,0,.2-2,2.58,2.58,0,0,0-2.7-2.76c-1.68,0-3.26,1.22-4.47,3.39a13.91,13.91,0,0,0-1.48,4.7l-1.12,6.68H546Z"/><path class="cls-4" d="M577.58,45c-1.84,3-4,4.27-7,4.27-4.21,0-6.94-3-6.94-7.47,0-5.59,3.62-9.8,8.39-9.8,4,0,6.48,2.67,6.48,7a10.39,10.39,0,0,1-.16,1.87h-12a12.41,12.41,0,0,0-.1,1.29c0,3,1.72,5,4.35,5,2.1,0,3.25-.76,4.9-3.16Zm-1.67-6,0-.79a3.9,3.9,0,0,0-4.08-4.31c-2.57,0-4.61,2-5.23,5.1Z"/><path class="cls-4" d="M582.06,44c.79,2.17,2.4,3.22,4.9,3.22,2.27,0,3.78-1.12,3.78-2.79a2.2,2.2,0,0,0-.88-1.78,8.08,8.08,0,0,0-2.31-.79l-.85-.2a9,9,0,0,1-3.65-1.41,3.93,3.93,0,0,1-1.58-3.16c0-2.89,2.43-4.9,5.89-4.9,3.12,0,5.33,1.35,6.28,3.81l-2.11.89a4.16,4.16,0,0,0-4.24-2.73c-1.91,0-3.26,1.05-3.26,2.54a1.92,1.92,0,0,0,1.22,1.84,10.87,10.87,0,0,0,2.17.62l1,.23a7.51,7.51,0,0,1,3.29,1.29A4.16,4.16,0,0,1,593.25,44c0,3.09-2.64,5.23-6.39,5.23-3.58,0-5.92-1.45-7.14-4.44Z"/><path class="cls-4" d="M609.83,45c-1.85,3-4,4.27-7,4.27-4.21,0-6.95-3-6.95-7.47,0-5.59,3.62-9.8,8.39-9.8,4,0,6.48,2.67,6.48,7a10.39,10.39,0,0,1-.16,1.87h-12a10.14,10.14,0,0,0-.1,1.29c0,3,1.71,5,4.34,5,2.1,0,3.26-.76,4.9-3.16Zm-1.68-6,0-.79a3.9,3.9,0,0,0-4.08-4.31c-2.56,0-4.6,2-5.23,5.1Z"/></g><g class="cls-3"><path class="cls-4" d="M623.28,36.69h-2.63l.69-4.15H624c.43-2.76.83-3.75,1.88-4.8a7.88,7.88,0,0,1,5.63-1.88,14.75,14.75,0,0,1,4.21.56l-.4,3.89a19,19,0,0,0-2.56-.27c-2.08,0-2.73.63-2.8,2.5H634l-.7,4.15h-4l-2,12.07h-6Z"/><path class="cls-4" d="M643.45,48.76a4.46,4.46,0,0,1-.06-.79c0-.46,0-1.22.09-1.87a5.93,5.93,0,0,1-5.33,3c-3,0-5.16-1.94-5.16-4.67a5.37,5.37,0,0,1,3.91-5.13c1.48-.56,2.41-.69,6.65-1.09.2,0,.59-.06,1.09-.09a3.73,3.73,0,0,0,.19-1c0-.79-.75-1.31-1.87-1.31a2.81,2.81,0,0,0-2.7,1.81L635,36.62a6.67,6.67,0,0,1,2.37-2.93,11.22,11.22,0,0,1,6.42-1.61c4.64,0,7.47,1.71,7.47,4.54,0,.79-.53,3.92-1.42,9a9.61,9.61,0,0,0-.16,1.88,7.64,7.64,0,0,0,.13,1.28Zm-2.37-3.52a2.88,2.88,0,0,0,2.44-1.68,8.19,8.19,0,0,0,.52-2.5,8.87,8.87,0,0,0-2.63.5,2.44,2.44,0,0,0-1.77,2.33A1.3,1.3,0,0,0,641.08,45.24Z"/><path class="cls-4" d="M664.21,37.35c-.46-1.06-1.41-1.55-3-1.55-1.12,0-1.78.36-1.78,1s.46.85,1.65,1.08A22,22,0,0,1,665.56,39a4.62,4.62,0,0,1,3.09,4.31,5.34,5.34,0,0,1-2.33,4.31,10.06,10.06,0,0,1-5.79,1.48,10.64,10.64,0,0,1-6.19-1.61,5,5,0,0,1-2.24-3.26l5.07-.72c.53,1.25,1.51,1.74,3.45,1.74,1.22,0,2.11-.42,2.11-1a.75.75,0,0,0-.26-.52c-.27-.2-.43-.26-2.93-.79-4.11-.89-5.89-2.44-5.89-5.1,0-3.45,2.93-5.69,7.47-5.69a10.18,10.18,0,0,1,5.39,1.35A5,5,0,0,1,669,36.29Z"/><path class="cls-4" d="M679.74,48.76a16.19,16.19,0,0,1-3.36.36c-2.07,0-3.25-.42-4.14-1.51a4,4,0,0,1-.92-2.73,15.36,15.36,0,0,1,.29-2.43l1-5.86h-2.24l.69-4.05h2.67l1.08-4.44,5.24-.46-.83,4.9h3l-.69,4.05h-2.92l-1,5.86a5.75,5.75,0,0,0-.17,1.08c0,.76.56,1.19,1.55,1.19a7.57,7.57,0,0,0,1.51-.17Z"/><path class="cls-4" d="M711.39,49a6.68,6.68,0,0,1-2.11.33,6,6,0,0,1-4.64-2,8.77,8.77,0,0,1-6,2c-5,0-8.39-2.73-8.39-6.71a6.3,6.3,0,0,1,2.23-4.9,13.41,13.41,0,0,1,3.85-2c-1.18-1.94-1.44-2.6-1.44-3.92,0-3.42,2.66-5.66,6.67-5.66s6.72,2.21,6.72,5.27a5.84,5.84,0,0,1-2,4.18,9,9,0,0,1-2.6,1.61l2.14,3c.95-1.08.82-1.22,2.1-3.42l.37-.63,5.06,1.06c-1.12,2.63-3.16,5.52-4.64,6.54a2.19,2.19,0,0,0,2,.83c.26,0,.46,0,1.44-.07Zm-12.54-9.6A2.73,2.73,0,0,0,696.91,42a2.52,2.52,0,0,0,2.73,2.6,3.67,3.67,0,0,0,2.31-.79Zm2.67-5.5a2.57,2.57,0,0,0,2-2.24A1.5,1.5,0,0,0,702,30.11a1.47,1.47,0,0,0-1.55,1.54,3.67,3.67,0,0,0,1,2.31C701.45,33.92,701.49,33.89,701.52,33.89Z"/><path class="cls-4" d="M722.81,32.54h6l1,8.19,3.46-8.19H738l.79,8.19,3.59-8.19h4.31l-7.47,16.22h-4.57l-.89-9.31-3.82,9.31H725.5Z"/><path class="cls-4" d="M746,41.72a9.17,9.17,0,0,1,9.44-9.57c4.94,0,8.13,3,8.13,7.7A9.28,9.28,0,0,1,754,49.26a8.21,8.21,0,0,1-5.83-2.18A6.79,6.79,0,0,1,746,41.72Zm8.26,3.59c1,0,1.68-.63,2.17-2.11a16.49,16.49,0,0,0,.72-4.6c0-1.65-.69-2.57-1.87-2.57-1,0-1.68.66-2.14,2a19.51,19.51,0,0,0-.79,4.7C752.35,44.39,753,45.31,754.26,45.31Z"/><path class="cls-4" d="M767.42,32.54h5.39l-.65,3.88c1.31-3.12,2.79-4.37,5.16-4.37a7.53,7.53,0,0,1,.76.07l-.73,5.79c-.62,0-.92,0-1.18,0-2.53,0-3.68,1.15-4.21,4.28l-1.12,6.61h-6.15Z"/><path class="cls-4" d="M780.08,32.54h5.4l-.66,3.88c1.32-3.12,2.8-4.37,5.17-4.37a7.38,7.38,0,0,1,.75.07L790,37.91c-.63,0-.92,0-1.18,0-2.54,0-3.69,1.15-4.22,4.28l-1.11,6.61h-6.16Z"/><path class="cls-4" d="M792.32,50.14c1.68,0,2.47-.42,2.47-1.31a5.14,5.14,0,0,0-.16-1.06l-3.92-15.23h6.45l1.38,6.55.43,2.07c.49-1.18.62-1.48.76-1.74l3.19-6.88h4.41L799.59,49c-2,4.25-3.84,5.56-7.76,5.56a12.62,12.62,0,0,1-2.57-.26l0-4.34C790.88,50.08,791.67,50.14,792.32,50.14Z"/><path class="cls-4" d="M806.67,38.23h8.22l-.82,4.84h-8.22Z"/><path class="cls-4" d="M818.08,36.69h-2.63l.69-4.15h2.63c.43-2.76.83-3.75,1.88-4.8a7.88,7.88,0,0,1,5.63-1.88,14.75,14.75,0,0,1,4.21.56l-.4,3.89a19,19,0,0,0-2.56-.27c-2.08,0-2.74.63-2.8,2.5h4l-.7,4.15h-4l-2,12.07h-5.95Z"/><path class="cls-4" d="M830.55,32.54H836l-.66,3.88c1.32-3.12,2.8-4.37,5.17-4.37.16,0,.42,0,.75.07l-.72,5.79c-.63,0-.92,0-1.19,0-2.53,0-3.68,1.15-4.21,4.28L834,48.76h-6.15Z"/><path class="cls-4" d="M858.16,43.93a7.85,7.85,0,0,1-2.74,3.35,9.56,9.56,0,0,1-5.95,2c-4.9,0-8.13-3.06-8.13-7.7a9.29,9.29,0,0,1,9.58-9.41c4.9,0,8,3.06,8,7.86a8.83,8.83,0,0,1-.2,1.84H847.59a7.17,7.17,0,0,0-.09,1,2.2,2.2,0,0,0,2.43,2.24,2.78,2.78,0,0,0,2.76-2Zm-5.27-5.2a4,4,0,0,0,.1-.79,2,2,0,0,0-2-2.14c-1.48,0-2.57,1.12-2.89,2.93Z"/><path class="cls-4" d="M877.37,43.93a7.83,7.83,0,0,1-2.73,3.35,9.61,9.61,0,0,1-6,2c-4.9,0-8.12-3.06-8.12-7.7a9.28,9.28,0,0,1,9.57-9.41c4.9,0,8,3.06,8,7.86a8.83,8.83,0,0,1-.2,1.84H866.81a6.07,6.07,0,0,0-.1,1,2.2,2.2,0,0,0,2.43,2.24,2.8,2.8,0,0,0,2.77-2Zm-5.27-5.2a4,4,0,0,0,.1-.79,2,2,0,0,0-2-2.14c-1.48,0-2.56,1.12-2.89,2.93Z"/></g><path class="cls-4" d="M896.65,32.08c4,0,6.51,2.9,6.51,7.4,0,5.47-3.62,9.78-8.16,9.78-3.94,0-6.54-3-6.54-7.54C888.46,36.39,892.11,32.08,896.65,32.08Zm-1.51,15.17a4.26,4.26,0,0,0,3.71-2.14A12.16,12.16,0,0,0,900.5,39a5.35,5.35,0,0,0-.82-3.36,3.92,3.92,0,0,0-3.16-1.54,4.42,4.42,0,0,0-3.79,2.2,12.41,12.41,0,0,0-1.57,6.09C891.16,45.44,892.64,47.25,895.14,47.25Z"/><path class="cls-4" d="M906.88,54.26h-2.5L908,32.54h2.33l-.52,3.33c1.61-2.5,3.35-3.69,5.46-3.69,3.16,0,5.33,2.8,5.33,6.88,0,5.52-3.42,10.13-7.57,10.13a5.36,5.36,0,0,1-4.83-2.83Zm5.76-7.11a4.1,4.1,0,0,0,3.75-2.3,13.59,13.59,0,0,0,1.48-6,5.59,5.59,0,0,0-.63-2.93,3.34,3.34,0,0,0-2.86-1.65c-2.8,0-5.49,4.12-5.49,8.39C908.89,45.37,910.37,47.15,912.64,47.15Z"/><path class="cls-4" d="M928.69,49.06c-.36,0-.72.06-1.05.06-2.76,0-4.08-1.15-4.08-3.58a21,21,0,0,1,.4-3.39l1.28-7.7h-2.47l.33-2h2.53l.66-3.95,2.47-.2-.69,4.15h3.68l-.33,2h-3.68l-1.48,8.82a15.82,15.82,0,0,0-.23,2c0,1.16.76,1.81,2,1.81a12.23,12.23,0,0,0,1.71-.09l.49-.07-.26,2-.46,0Z"/><path class="cls-4" d="M935.6,32.48h2.54l-2.73,16.28h-2.54Zm.63-5.66h3.26l-.5,3H935.7Z"/><path class="cls-4" d="M948.43,32.08c4,0,6.52,2.9,6.52,7.4,0,5.47-3.62,9.78-8.16,9.78-3.95,0-6.55-3-6.55-7.54C940.24,36.39,943.89,32.08,948.43,32.08Zm-1.51,15.17a4.27,4.27,0,0,0,3.72-2.14A12.15,12.15,0,0,0,952.28,39a5.35,5.35,0,0,0-.82-3.36,3.9,3.9,0,0,0-3.16-1.54,4.41,4.41,0,0,0-3.78,2.2,12.31,12.31,0,0,0-1.58,6.09C942.94,45.44,944.42,47.25,946.92,47.25Z"/><path class="cls-4" d="M959.85,32.48H962l-.62,3.62c1.51-2.77,3.35-4.08,5.75-4.08A4.6,4.6,0,0,1,972,36.59a20,20,0,0,1-.3,2.76l-1.54,9.41h-2.41l1.58-9.37a16.79,16.79,0,0,0,.27-2.31,2.86,2.86,0,0,0-3-3.06,5,5,0,0,0-4.18,2.73,17,17,0,0,0-1.91,6.19l-1,5.82h-2.34Z"/><path class="cls-4" d="M976.2,44c.79,2.17,2.4,3.22,4.9,3.22,2.27,0,3.79-1.12,3.79-2.79a2.18,2.18,0,0,0-.89-1.78,8.1,8.1,0,0,0-2.3-.79l-.86-.2a9,9,0,0,1-3.65-1.41,3.93,3.93,0,0,1-1.58-3.16c0-2.89,2.43-4.9,5.89-4.9,3.12,0,5.33,1.35,6.28,3.81l-2.1.89a4.16,4.16,0,0,0-4.25-2.73c-1.9,0-3.25,1.05-3.25,2.54a1.91,1.91,0,0,0,1.21,1.84,10.87,10.87,0,0,0,2.17.62l1,.23a7.51,7.51,0,0,1,3.29,1.29A4.16,4.16,0,0,1,987.39,44c0,3.09-2.63,5.23-6.39,5.23-3.58,0-5.92-1.45-7.13-4.44Z"/><path class="cls-4" d="M991.07,45.64h3.33l-.53,3.12h-3.32ZM994,26.82h3.62l-3.68,16.32h-1.39Z"/></g></g></g><g id="Layer_7" data-name="Layer 7"><rect id="_1440276_container" data-name=" 1440276 container" class="cls-5" width="1440" height="276"/></g><g id="Layer_8" data-name="Layer 8"><rect class="cls-2" x="652" y="21" width="324" height="33"/></g><g id="Layer_6" data-name="Layer 6"><g id="HEADLINE-2" data-name="HEADLINE"><g id="Get_it_today_with_these_fast_worry-free_options_2" data-name="Get it today with these fast worry-free options "><g class="cls-3"><path class="cls-4" d="M293.46,45.43a6.43,6.43,0,0,1-5.8,3c-5,0-8.34-4-8.34-9.9a16.5,16.5,0,0,1,2.24-8.31c1.95-3.23,4.68-4.91,8-4.91a8,8,0,0,1,6.3,2.77,9.56,9.56,0,0,1,1.81,3.5l-2.37.82c-1-3.26-2.93-4.95-5.74-4.95-2.57,0-4.71,1.62-6,4.52a17.46,17.46,0,0,0-1.42,6.83c0,4.58,2.24,7.48,5.77,7.48a5.76,5.76,0,0,0,5.24-3.52A11.84,11.84,0,0,0,294.19,39h-5.74l.36-2.14h8.35L295.28,48.1h-1.49Z"/><path class="cls-4" d="M303.72,25.84h13.69L317,28H306l-1.22,7.25h9.43l-.36,2.18h-9.43l-1.35,8H315l-.4,2.35H300Z"/><path class="cls-4" d="M325.85,28.08h-6.36l.36-2.24h15.43l-.36,2.24h-6.37l-3.33,19.76h-2.67Z"/><path class="cls-4" d="M346.63,25.84h2.67l-3.7,22h-2.67Z"/><path class="cls-4" d="M358.17,28.08h-6.36l.36-2.24H367.6l-.36,2.24h-6.37l-3.33,19.76h-2.67Z"/><path class="cls-4" d="M382.51,28.08h-6.37l.37-2.24h15.43l-.36,2.24h-6.37l-3.33,19.76h-2.67Z"/><path class="cls-4" d="M393.19,30.52c1.92-3.33,4.79-5.11,8.15-5.11,5.08,0,8.34,3.8,8.34,9.66A17.47,17.47,0,0,1,408,42.33c-1.91,3.92-4.81,5.93-8.57,5.93-5,0-8.34-3.92-8.34-9.85A16.37,16.37,0,0,1,393.19,30.52Zm6.27,15.54c3,0,5.37-2.21,6.59-6.24a24.08,24.08,0,0,0,.83-5.47c0-4.06-2.24-6.73-5.64-6.73-2.84,0-5,1.92-6.27,5.51A18.93,18.93,0,0,0,394,39C394,43.32,396.1,46.06,399.46,46.06Z"/><path class="cls-4" d="M415.55,25.84h6.07c3.46,0,5.31.73,7.06,2.74a10.37,10.37,0,0,1,2.27,7A13.56,13.56,0,0,1,427.42,45c-1.94,2-3.95,2.81-7.45,2.81h-8.11Zm3.8,19.79h.13c3.69,0,5.8-1.16,7.35-4.13a13.47,13.47,0,0,0,1.42-6.16,8.38,8.38,0,0,0-1.62-5.44c-1.15-1.39-2.8-2-5.34-2l-3.43,0-2.93,17.64Z"/><path class="cls-4" d="M442.6,25.84h3.06l3.83,22h-2.84l-1.12-6.43h-8l-3.17,6.43h-2.5Zm2.6,13.36-1.71-10.13L438.54,39.2Z"/><path class="cls-4" d="M456.84,38.64l-5.6-12.8h3l4.55,10.42,7.58-10.42H469l-9.43,12.8-1.55,9.2h-2.77Z"/><path class="cls-4" d="M477.33,25.84H480L481.78,44l7.42-18.17h2L493.52,44l7.32-18.17h2.27l-8.9,22H491.5l-2.11-17.55-7.05,17.55h-2.87Z"/><path class="cls-4" d="M506.51,25.84h2.67l-3.69,22h-2.67Z"/><path class="cls-4" d="M518.05,28.08h-6.36l.36-2.24h15.43l-.36,2.24h-6.36l-3.33,19.76h-2.67Z"/><path class="cls-4" d="M530.59,25.84h2.67l-1.55,9.27h10.78L544,25.84h2.67l-3.69,22h-2.67l1.74-10.39H531.31l-1.75,10.39h-2.67Z"/><path class="cls-4" d="M564,28.08h-6.37l.37-2.24h15.43l-.37,2.24h-6.36L563.4,47.84h-2.67Z"/><path class="cls-4" d="M576.56,25.84h2.67l-1.55,9.27h10.78L590,25.84h2.67l-3.69,22h-2.67l1.75-10.39H577.28l-1.74,10.39h-2.67Z"/><path class="cls-4" d="M598.19,25.84h13.69L611.51,28h-11l-1.22,7.25h9.43l-.36,2.18h-9.43l-1.35,8h11.9l-.4,2.35H594.5Z"/><path class="cls-4" d="M626.72,31.32a5.76,5.76,0,0,0-5.77-4c-2.77,0-4.62,1.55-4.62,3.85a2.89,2.89,0,0,0,1.19,2.41c.89.63.89.66,3.79,1.39,2.7.69,3.79,1.05,4.65,1.61a5.47,5.47,0,0,1,2.57,4.82c0,4.15-3.3,6.89-8.37,6.89a10.25,10.25,0,0,1-6.27-1.95,8,8,0,0,1-2.67-4.15l2.41-.89a7.27,7.27,0,0,0,1.68,3,7,7,0,0,0,4.91,1.75c3.27,0,5.58-1.82,5.58-4.39a3.22,3.22,0,0,0-1.88-3,11.47,11.47,0,0,0-3.33-1A13.82,13.82,0,0,1,616,35.93a5.17,5.17,0,0,1-2.37-4.48c0-3.66,3-6.2,7.25-6.2,4,0,6.76,1.75,8.15,5.18Z"/><path class="cls-4" d="M635,25.84h13.69L648.35,28h-11l-1.22,7.25h9.43l-.36,2.18h-9.43l-1.36,8h11.91l-.4,2.35H631.34Z"/><path class="cls-4" d="M660.89,25.84h15.46l-.82,4.95h-9.1l-.66,3.89h7.05L672,39.46h-7l-1.42,8.38h-6.37Z"/><path class="cls-4" d="M682.22,25.84h6.9l3.42,22h-6.49l-.59-4.49h-5.91l-2,4.49h-5.44Zm2.84,13-.89-6.36-2.9,6.36Z"/><path class="cls-4" d="M708.64,32.4a3.19,3.19,0,0,0-3.33-2.14c-1.32,0-2.14.56-2.14,1.45,0,.73.42,1.09,2,1.65,4.48,1.55,4.51,1.58,5.7,2.41a5.51,5.51,0,0,1,2.54,4.75c0,4.55-3.92,7.65-9.69,7.65A12.54,12.54,0,0,1,696.31,46a7.78,7.78,0,0,1-2.87-4l6.33-1.22c.66,1.62,1.88,2.31,4.09,2.31,1.55,0,2.54-.63,2.54-1.65a1.15,1.15,0,0,0-.37-.82,2.08,2.08,0,0,0-.72-.46L701,38.6c-3.33-1.22-4.91-3.13-4.91-5.93a6.83,6.83,0,0,1,2.8-5.57A10.09,10.09,0,0,1,705,25.48a11.13,11.13,0,0,1,6.59,1.81A6.66,6.66,0,0,1,714.31,31Z"/><path class="cls-4" d="M720.64,30.82h-4.71l.86-5h15.89l-.82,5H727l-2.84,17h-6.39Z"/><path class="cls-4" d="M760.51,48.07a7,7,0,0,1-2.11.33,6,6,0,0,1-4.65-2,8.77,8.77,0,0,1-6,2c-5,0-8.41-2.74-8.41-6.73a6.31,6.31,0,0,1,2.25-4.91,13.18,13.18,0,0,1,3.86-2c-1.19-1.94-1.46-2.6-1.46-3.92,0-3.43,2.68-5.67,6.7-5.67s6.73,2.2,6.73,5.27a5.82,5.82,0,0,1-2,4.19,8.76,8.76,0,0,1-2.6,1.61l2.14,3c1-1.09.83-1.22,2.11-3.43l.37-.63,5.07,1c-1.12,2.64-3.16,5.54-4.65,6.57a2.2,2.2,0,0,0,2,.82c.27,0,.46,0,1.45-.06ZM748,38.44A2.74,2.74,0,0,0,746,41a2.53,2.53,0,0,0,2.73,2.61,3.73,3.73,0,0,0,2.31-.79Zm2.67-5.51a2.57,2.57,0,0,0,2-2.24,1.51,1.51,0,0,0-1.55-1.55,1.47,1.47,0,0,0-1.55,1.55,3.67,3.67,0,0,0,1,2.31C750.56,33,750.59,32.93,750.62,32.93Z"/><path class="cls-4" d="M773.08,25.84h6.14l.79,10c.1,1.45.2,2.31.29,3.2l.14-.5a6.94,6.94,0,0,1,.33-1l.42-1.06,4.36-10.62h5.31l.75,10c.1,1.15.17,2,.23,3.2l.3-.92,1.06-2.74,3.72-9.5H802l-9.07,22h-5.77l-1-13.19-.33.85L785.32,37l-.7,1.68-3.69,9.14h-5.37Z"/><path class="cls-4" d="M804.38,28.71a11.09,11.09,0,0,1,8-3.43c5.74,0,9.47,4,9.47,10.09a15.43,15.43,0,0,1-2.57,8.38,10.49,10.49,0,0,1-8.84,4.65c-5.74,0-9.63-4-9.63-9.9A15,15,0,0,1,804.38,28.71Zm6.17,14.58c1.71,0,2.9-1.22,3.52-3.7a30.25,30.25,0,0,0,1-5.77c0-2.17-1.06-3.43-2.84-3.43-1.58,0-2.77,1.16-3.46,3.37a26.47,26.47,0,0,0-1,6.13C807.74,42.16,808.67,43.29,810.55,43.29Z"/><path class="cls-4" d="M826.48,25.84H836a9.12,9.12,0,0,1,5.21,1.22,6.22,6.22,0,0,1,2.47,5.18,6.67,6.67,0,0,1-2.24,5.11,7.26,7.26,0,0,1-2.37,1.29l2.4,9.2H835L833,39.49h-2.61l-1.38,8.35h-6.27Zm7.22,9.07a4,4,0,0,0,2.57-.56,2.28,2.28,0,0,0,1-1.81c0-1.36-1-2.08-3-2.08H832l-.73,4.45Z"/><path class="cls-4" d="M848.37,25.84h9.57a9.12,9.12,0,0,1,5.21,1.22,6.22,6.22,0,0,1,2.47,5.18,6.7,6.7,0,0,1-2.24,5.11A7.32,7.32,0,0,1,861,38.64l2.41,9.2h-6.53l-1.94-8.35h-2.61L851,47.84h-6.27Zm7.22,9.07a4,4,0,0,0,2.58-.56,2.28,2.28,0,0,0,1-1.81c0-1.36-1-2.08-3-2.08h-2.31l-.73,4.45Z"/><path class="cls-4" d="M872.58,38,867.4,25.84h7l2.21,5.87a17,17,0,0,1,.59,1.72c.7-1.09.73-1.19,1.09-1.72l3.93-5.87h6l-9.06,12.47-1.59,9.53h-6.56Z"/><path class="cls-4" d="M886.13,37.28h8.25l-.83,4.85h-8.24Z"/><path class="cls-4" d="M898.63,25.84H914.1l-.83,4.95h-9.1l-.66,3.89h7.06l-.79,4.78h-7.06l-1.42,8.38h-6.36Z"/><path class="cls-4" d="M916.25,25.84h9.56A9.12,9.12,0,0,1,931,27.06a6.22,6.22,0,0,1,2.47,5.18,6.67,6.67,0,0,1-2.24,5.11,7.22,7.22,0,0,1-2.38,1.29l2.41,9.2h-6.53l-1.94-8.35H920.2l-1.38,8.35h-6.27Zm7.22,9.07a4,4,0,0,0,2.57-.56,2.28,2.28,0,0,0,1-1.81c0-1.36-1-2.08-3-2.08h-2.31L921,34.91Z"/><path class="cls-4" d="M938.14,25.84H953.9l-.79,4.82h-9.43l-.56,3.46H951l-.8,4.78h-7.91l-.66,3.89h9.83l-.86,5.05H934.45Z"/><path class="cls-4" d="M957,25.84H972.8L972,30.66h-9.43L962,34.12h7.91l-.79,4.78h-7.91l-.66,3.89h9.82l-.85,5.05H953.35Z"/><path class="cls-4" d="M983.82,30.52c1.91-3.33,4.78-5.11,8.14-5.11,5.08,0,8.35,3.8,8.35,9.66a17.47,17.47,0,0,1-1.65,7.26c-1.91,3.92-4.82,5.93-8.58,5.93-5,0-8.34-3.92-8.34-9.85A16.27,16.27,0,0,1,983.82,30.52Zm6.26,15.54c3,0,5.38-2.21,6.6-6.24a24.06,24.06,0,0,0,.82-5.47c0-4.06-2.24-6.73-5.63-6.73-2.84,0-5,1.92-6.27,5.51a18.64,18.64,0,0,0-1,5.84C984.58,43.32,986.72,46.06,990.08,46.06Z"/><path class="cls-4" d="M1006.18,25.84h6c2.7,0,4,.23,5.08.93a6.17,6.17,0,0,1,2.74,5.17,7.4,7.4,0,0,1-2.41,5.31c-1.42,1.22-3.33,1.72-6.5,1.72h-4.45l-1.48,8.87h-2.67ZM1010,36.76c3.06,0,4-.14,4.94-.63a4.79,4.79,0,0,0,2.21-4.15,3.89,3.89,0,0,0-1.81-3.53,7.87,7.87,0,0,0-3.23-.43h-3.66L1007,36.76Z"/><path class="cls-4" d="M1028,28.08h-6.37l.37-2.24h15.43l-.36,2.24h-6.37l-3.33,19.76h-2.67Z"/><path class="cls-4" d="M1040.31,25.84H1043l-3.69,22h-2.67Z"/><path class="cls-4" d="M1047.21,30.52c1.91-3.33,4.78-5.11,8.14-5.11,5.08,0,8.34,3.8,8.34,9.66a17.31,17.31,0,0,1-1.65,7.26c-1.91,3.92-4.81,5.93-8.57,5.93-5,0-8.34-3.92-8.34-9.85A16.27,16.27,0,0,1,1047.21,30.52Zm6.26,15.54c3,0,5.37-2.21,6.6-6.24a24.63,24.63,0,0,0,.82-5.47c0-4.06-2.24-6.73-5.64-6.73-2.83,0-5,1.92-6.26,5.51a18.65,18.65,0,0,0-1,5.84C1048,43.32,1050.11,46.06,1053.47,46.06Z"/><path class="cls-4" d="M1069.57,25.84h3l8,17.54,2.93-17.54h2.18l-3.7,22h-2.14L1071.18,29l-3.13,18.8h-2.18Z"/><path class="cls-4" d="M1101.72,31.32a5.76,5.76,0,0,0-5.77-4c-2.77,0-4.62,1.55-4.62,3.85a2.89,2.89,0,0,0,1.19,2.41c.89.63.89.66,3.79,1.39,2.7.69,3.79,1.05,4.65,1.61a5.47,5.47,0,0,1,2.57,4.82c0,4.15-3.3,6.89-8.37,6.89a10.25,10.25,0,0,1-6.27-1.95,8,8,0,0,1-2.67-4.15l2.41-.89a7.27,7.27,0,0,0,1.68,3,7,7,0,0,0,4.91,1.75c3.27,0,5.57-1.82,5.57-4.39a3.21,3.21,0,0,0-1.87-3,11.47,11.47,0,0,0-3.34-1,13.85,13.85,0,0,1-4.58-1.75,5.17,5.17,0,0,1-2.37-4.48c0-3.66,3-6.2,7.25-6.2,4,0,6.76,1.75,8.15,5.18Z"/><path class="cls-4" d="M1106.87,44.7h3.33l-.53,3.14h-3.33Zm2.93-18.86h3.63l-3.7,16.36h-1.38Z"/></g></g></g></g><g id="Layer_2" data-name="Layer 2"><rect class="cls-2" x="211.74" y="172.78" width="114.15" height="16.12"/><path class="cls-4" d="M223.12,182.75a5.38,5.38,0,0,1-1.32,2.43,4.17,4.17,0,0,1-3.28,1.43c-2.58,0-4.27-1.88-4.27-4.7a7.11,7.11,0,0,1,.87-3.41,4.82,4.82,0,0,1,4.44-2.68,3.86,3.86,0,0,1,4.06,4l-2.92.22a2.69,2.69,0,0,0-.18-1.21,1.1,1.1,0,0,0-1.06-.68c-.68,0-1.13.4-1.45,1.33a11.76,11.76,0,0,0-.53,3c0,1.07.42,1.61,1.24,1.61s1.24-.46,1.63-1.75Z"/><path class="cls-4" d="M226.45,177.4a5.2,5.2,0,0,1,3.79-1.61c2.69,0,4.45,1.86,4.45,4.74a7.23,7.23,0,0,1-1.21,3.94,4.92,4.92,0,0,1-4.16,2.19,4.36,4.36,0,0,1-4.53-4.66A7.08,7.08,0,0,1,226.45,177.4Zm2.9,6.85c.81,0,1.37-.57,1.66-1.73a14.16,14.16,0,0,0,.45-2.72c0-1-.5-1.61-1.33-1.61s-1.3.54-1.63,1.58a12.5,12.5,0,0,0-.47,2.89C228,183.73,228.47,184.25,229.35,184.25Z"/><path class="cls-4" d="M237.61,176.05h2.78l1.13,2.39a29.7,29.7,0,0,1,1.55,3.69,3.35,3.35,0,0,1,0-.5,16.44,16.44,0,0,1,.2-1.66l.67-3.92h2.46l-1.73,10.34h-2.3l-2-4a12.34,12.34,0,0,1-1-2.57l0,.39a5.91,5.91,0,0,1-.13,1.08l-.84,5.07h-2.52Z"/><path class="cls-4" d="M250,178.39h-2.22l.4-2.37h7.48l-.39,2.37H253l-1.33,8h-3Z"/><path class="cls-4" d="M259.05,176.05h3.24l1.61,10.34h-3l-.28-2.11h-2.78l-1,2.11h-2.56Zm1.33,6.09-.42-3-1.36,3Z"/><path class="cls-4" d="M274.49,182.75a5.48,5.48,0,0,1-1.32,2.43,4.19,4.19,0,0,1-3.29,1.43c-2.57,0-4.26-1.88-4.26-4.7a7.11,7.11,0,0,1,.87-3.41,4.81,4.81,0,0,1,4.43-2.68,3.92,3.92,0,0,1,3.2,1.41,4,4,0,0,1,.87,2.6l-2.92.22a2.67,2.67,0,0,0-.19-1.21,1.08,1.08,0,0,0-1.05-.68c-.68,0-1.13.4-1.46,1.33a12.18,12.18,0,0,0-.52,3c0,1.07.41,1.61,1.24,1.61s1.24-.46,1.62-1.75Z"/><path class="cls-4" d="M278.6,178.39h-2.22l.4-2.37h7.47l-.38,2.37h-2.28l-1.34,8h-3Z"/><path class="cls-4" d="M286.05,176.05h3.13l-1.32,7.86h3.93l-.42,2.48h-7.06Z"/><path class="cls-4" d="M295,176.05h7.41l-.37,2.27H297.6l-.27,1.62h3.73l-.38,2.25H297l-.31,1.83h4.62l-.4,2.37h-7.61Z"/><path class="cls-4" d="M309.77,179.14a1.5,1.5,0,0,0-1.57-1c-.62,0-1,.26-1,.68s.2.51.95.78c2.11.73,2.12.74,2.68,1.13A2.57,2.57,0,0,1,312,183c0,2.14-1.84,3.6-4.55,3.6a5.88,5.88,0,0,1-3.49-1,3.64,3.64,0,0,1-1.35-1.88l3-.57a1.77,1.77,0,0,0,1.92,1.09c.73,0,1.19-.3,1.19-.78a.56.56,0,0,0-.17-.39.9.9,0,0,0-.34-.21l-2-.75c-1.57-.57-2.31-1.47-2.31-2.79a3.23,3.23,0,0,1,1.32-2.62,4.75,4.75,0,0,1,2.85-.76,5.25,5.25,0,0,1,3.1.85,3.12,3.12,0,0,1,1.3,1.73Z"/><path class="cls-4" d="M320.32,179.14a1.48,1.48,0,0,0-1.56-1c-.62,0-1,.26-1,.68s.2.51.94.78c2.11.73,2.13.74,2.69,1.13a2.6,2.6,0,0,1,1.19,2.23c0,2.14-1.85,3.6-4.56,3.6a5.9,5.9,0,0,1-3.49-1,3.69,3.69,0,0,1-1.35-1.88l3-.57a1.77,1.77,0,0,0,1.92,1.09c.73,0,1.2-.3,1.2-.78a.56.56,0,0,0-.17-.39,1,1,0,0,0-.34-.21l-2-.75c-1.56-.57-2.31-1.47-2.31-2.79a3.23,3.23,0,0,1,1.32-2.62,4.79,4.79,0,0,1,2.85-.76,5.29,5.29,0,0,1,3.11.85,3.17,3.17,0,0,1,1.3,1.73Z"/><path class="cls-4" d="M229.16,210.11c-1.51,4-4.11,6.07-7.64,6.07a7.32,7.32,0,0,1-4-1.1c-2.17-1.45-3.46-4.36-3.46-7.76a16.14,16.14,0,0,1,2.05-7.73c1.78-3.07,4.36-4.73,7.36-4.73a7,7,0,0,1,5.65,2.73,8.38,8.38,0,0,1,1.38,4.08l-2.24.56a8.4,8.4,0,0,0-.86-3.13,4.38,4.38,0,0,0-3.93-2.18,5.35,5.35,0,0,0-4.6,2.76,16.83,16.83,0,0,0-2.17,8c0,4,1.87,6.41,4.87,6.41a5.13,5.13,0,0,0,4-2.11,12.94,12.94,0,0,0,1.5-2.7Z"/><path class="cls-4" d="M246.8,207.84c-.62,3.71-1.32,5.37-2.7,6.65a7.65,7.65,0,0,1-5.25,1.81c-4.2,0-6.75-2.14-6.75-5.73a22,22,0,0,1,.53-3.87l1.87-11.31H237l-2,11.86a16.38,16.38,0,0,0-.43,3.16c0,2.34,1.72,3.84,4.38,3.84a5.43,5.43,0,0,0,3.9-1.44c.95-.95,1.35-2,1.81-4.73l2.12-12.69h2Z"/><path class="cls-4" d="M253.7,195.39h6.38c2.42,0,3.77.24,4.87.89a5.13,5.13,0,0,1,2.52,4.53,5.54,5.54,0,0,1-4.75,5.62l2.88,9.41H263l-2.67-9h-6l-1.5,9h-2.49Zm5.58,9.44c2.15,0,3.44-.3,4.39-1.07a4,4,0,0,0,1.25-3c0-2.24-1.47-3.37-4.38-3.37h-4.69l-1.26,7.45Z"/><path class="cls-4" d="M273.12,195.39h6.38c2.76,0,3.65.18,4.81.92a4.57,4.57,0,0,1,2,3.92,4.9,4.9,0,0,1-1.74,3.81,7.06,7.06,0,0,1-2.24,1.1,4.65,4.65,0,0,1,3.22,4.72,6,6,0,0,1-2.27,4.79c-1.32,1-2.36,1.19-5.58,1.19h-8ZM277,213.82c3,0,3.86-.15,4.78-.92a4.41,4.41,0,0,0,1.35-3.34,3.08,3.08,0,0,0-1.25-2.7c-.86-.62-1.41-.71-3.9-.71h-4.14l-1.29,7.67Zm1-9.6c2.61,0,3.62-.22,4.57-1a3.93,3.93,0,0,0,1.29-2.92,2.72,2.72,0,0,0-1.9-2.79,9.41,9.41,0,0,0-2.45-.21h-.31l-3.93,0-1.13,6.87Z"/><path class="cls-4" d="M302,200.48a5.35,5.35,0,0,0-5.37-3.71c-2.57,0-4.29,1.44-4.29,3.58a2.69,2.69,0,0,0,1.1,2.24c.83.59.83.62,3.53,1.29a14.71,14.71,0,0,1,4.32,1.5,5.09,5.09,0,0,1,2.4,4.48c0,3.87-3.07,6.41-7.79,6.41a9.46,9.46,0,0,1-5.83-1.81,7.51,7.51,0,0,1-2.49-3.86l2.24-.83a6.66,6.66,0,0,0,1.57,2.82,6.5,6.5,0,0,0,4.57,1.63c3,0,5.18-1.69,5.18-4.08a3,3,0,0,0-1.75-2.82,10.36,10.36,0,0,0-3.1-.92,12.87,12.87,0,0,1-4.26-1.63,4.81,4.81,0,0,1-2.21-4.17c0-3.4,2.76-5.77,6.75-5.77,3.71,0,6.29,1.63,7.58,4.82Z"/><path class="cls-4" d="M309.43,195.39h2.49l-3.44,20.45H306Z"/><path class="cls-4" d="M317,195.39h5.64c3.22,0,4.94.67,6.57,2.54a9.62,9.62,0,0,1,2.11,6.47,12.66,12.66,0,0,1-3.28,8.84c-1.81,1.9-3.68,2.6-6.93,2.6h-7.55Zm3.53,18.4h.12c3.43,0,5.4-1.08,6.84-3.84a12.5,12.5,0,0,0,1.32-5.73,7.77,7.77,0,0,0-1.51-5.06c-1.07-1.29-2.6-1.87-5-1.84l-3.19,0-2.73,16.41Z"/><path class="cls-4" d="M336.61,195.39h12.73l-.34,2H338.76l-1.14,6.75h8.78l-.34,2h-8.77L336,213.67H347.1l-.37,2.17H333.18Z"/><path class="cls-4" d="M215.17,224h6.75c3,0,4,.19,5.4,1a5.81,5.81,0,0,1,2.82,5.15A6.69,6.69,0,0,1,222.9,237h-4l-1.25,7.48h-5.92Zm5.89,8.59c2.09,0,3.22-.76,3.22-2.18s-.95-2-2.7-2h-1.23l-.7,4.17Z"/><path class="cls-4" d="M233.18,224H239l-3.43,20.46h-5.8Z"/><path class="cls-4" d="M257.41,237.27a11,11,0,0,1-2.61,4.82,8.32,8.32,0,0,1-6.5,2.82c-5.09,0-8.43-3.71-8.43-9.29a14,14,0,0,1,1.71-6.75,9.51,9.51,0,0,1,8.77-5.31,7.65,7.65,0,0,1,8,7.95l-5.77.43a5.4,5.4,0,0,0-.36-2.4,2.16,2.16,0,0,0-2.09-1.34c-1.35,0-2.24.79-2.88,2.63a23.84,23.84,0,0,0-1,6c0,2.12.83,3.19,2.46,3.19s2.45-.92,3.22-3.46Z"/><path class="cls-4" d="M262,224h5.67l-.64,3.84-.92,5.58a7.23,7.23,0,0,1,1.26-2.09c.15-.18.7-.79,1.59-1.87.62-.7,1.17-1.5,1.78-2.17l2.92-3.29h5.85l-6.9,7.76,3.93,12.7h-6l-2.3-8.43L265,239.51l-.83,5h-5.67Z"/><path class="cls-4" d="M295.69,236.6c-.52,3.19-1,4.51-2.18,5.73a9.48,9.48,0,0,1-6.93,2.46c-3,0-5.37-.92-6.65-2.61a4.91,4.91,0,0,1-1-3.37,13.64,13.64,0,0,1,.19-2.21L281.21,224h6.23l-2.12,12.58a11.75,11.75,0,0,0-.15,1.53c0,1.2,1.07,2,2.58,2a3,3,0,0,0,2.3-1,5.33,5.33,0,0,0,.73-2.37L292.93,224h4.88Z"/><path class="cls-4" d="M301.18,224h6.75c3,0,4,.19,5.4,1a5.81,5.81,0,0,1,2.82,5.15,6.69,6.69,0,0,1-7.24,6.84h-4l-1.26,7.48h-5.92Zm5.89,8.59c2.09,0,3.22-.76,3.22-2.18s-1-2-2.7-2h-1.22l-.71,4.17Z"/><path class="cls-4" d="M316.64,239.05h5.62l-.92,5.43h-5.62Z"/><path class="cls-6" d="M293.05,148.21v-9.67A11.51,11.51,0,0,0,281.54,127h-9.32l-13.76-16.66h-23a22.33,22.33,0,0,0-18.9,10.44h0A23.22,23.22,0,0,0,213,133.19v15Z"/><path class="cls-4" d="M293.05,149.05H213a.83.83,0,0,1-.84-.83v-15a24.1,24.1,0,0,1,3.7-12.84,23.06,23.06,0,0,1,19.61-10.83h23a.81.81,0,0,1,.64.31l13.52,16.36h8.92a12.36,12.36,0,0,1,12.35,12.35v9.68A.83.83,0,0,1,293.05,149.05Zm-79.22-1.67h78.39v-8.84a10.69,10.69,0,0,0-10.68-10.68h-9.32a.83.83,0,0,1-.64-.3L258.06,111.2H235.47a21.38,21.38,0,0,0-18.19,10,22.4,22.4,0,0,0-3.45,12Z"/><polygon class="cls-7" points="267.34 127 256.83 114.2 247.23 114.2 247.23 127 267.34 127"/><path class="cls-4" d="M267.34,127.84H247.23a.83.83,0,0,1-.83-.84V114.2a.84.84,0,0,1,.83-.84h9.6a.8.8,0,0,1,.64.31L268,126.47a.84.84,0,0,1-.65,1.37Zm-19.27-1.67h17.5L256.43,115h-8.36Z"/><path class="cls-7" d="M217.47,127l2.68-4.7a15.64,15.64,0,0,1,7.75-6.85c.44-.17.9-.32,1.36-.46a15.67,15.67,0,0,1,4-.56l10.88-.23V127Z"/><path class="cls-4" d="M244.17,127.84h-26.7a.84.84,0,0,1-.73-1.25l2.69-4.7a16.4,16.4,0,0,1,8.17-7.22c.46-.18,1-.34,1.43-.48a16.24,16.24,0,0,1,4.24-.6l10.88-.23a.79.79,0,0,1,.6.24.84.84,0,0,1,.25.6V127A.83.83,0,0,1,244.17,127.84Zm-25.26-1.67h24.42V115.05l-10,.21a14.72,14.72,0,0,0-3.82.54c-.43.12-.86.27-1.28.43a14.77,14.77,0,0,0-7.33,6.49Z"/><g class="cls-8"><g class="cls-9"><circle class="cls-10" cx="231.11" cy="132.49" r="2.7"/><path class="cls-10" d="M239.06,135.1H238l-2.28-3v3h-1.28v-5.21h1.16l2.21,2.9v-2.9h1.28Z"/></g><polygon class="cls-4" points="229.62 135.19 225.54 135.19 226.23 121.7 229.22 121.7 229.62 135.19"/><path class="cls-4" d="M229.62,135.86h-4.08a.63.63,0,0,1-.48-.21.69.69,0,0,1-.19-.49l.69-13.49a.66.66,0,0,1,.67-.64h3a.67.67,0,0,1,.67.65l.4,13.49a.73.73,0,0,1-.19.49A.67.67,0,0,1,229.62,135.86Zm-3.37-1.34h2.68l-.36-12.15h-1.71Z"/><polygon class="cls-11" points="239.25 135.19 229.62 135.19 229.22 121.7 238.56 121.7 239.25 135.19"/><path class="cls-4" d="M239.24,135.86h-9.62a.67.67,0,0,1-.67-.65l-.39-13.49a.66.66,0,0,1,.18-.48.68.68,0,0,1,.48-.21h9.34a.67.67,0,0,1,.67.64l.68,13.49a.64.64,0,0,1-.18.49A.65.65,0,0,1,239.24,135.86Zm-9-1.34h8.27l-.61-12.15h-8Z"/><path class="cls-4" d="M236.52,124a.5.5,0,0,1-.5-.5v-3a2.1,2.1,0,1,0-4.19,0v3a.5.5,0,0,1-1,0v-3a3.1,3.1,0,1,1,6.19,0v3A.5.5,0,0,1,236.52,124Z"/><path class="cls-4" d="M233.93,122.09a.5.5,0,0,1-.51-.5v-1.06a2.09,2.09,0,1,0-4.18,0v1.06a.5.5,0,0,1-.5.5.5.5,0,0,1-.5-.5v-1.06a3.1,3.1,0,1,1,6.19,0v1.06A.5.5,0,0,1,233.93,122.09Z"/></g><circle class="cls-4" cx="228.1" cy="148.66" r="9.01"/><rect class="cls-4" x="213.29" y="145.02" width="79.1" height="3.2" transform="translate(505.68 293.23) rotate(-180)"/><path class="cls-4" d="M213,141.9h-3.78a.84.84,0,0,1-.84-.84V135a.84.84,0,0,1,.84-.84H213a.84.84,0,0,1,.83.84v6.05A.84.84,0,0,1,213,141.9Zm-2.95-1.67h2.11v-4.38h-2.11Z"/><path class="cls-4" d="M213,146.66h-4.69a.84.84,0,0,1-.84-.84v-4.76a.83.83,0,0,1,.84-.83H213a.83.83,0,0,1,.83.83v4.76A.84.84,0,0,1,213,146.66ZM209.14,145h3V141.9h-3Z"/><path class="cls-4" d="M296.2,145.86h-3.15a.84.84,0,0,1-.83-.84V139a.84.84,0,0,1,.83-.84h3.15a.85.85,0,0,1,.84.84V145A.85.85,0,0,1,296.2,145.86Zm-2.31-1.68h1.47V139.8h-1.47Z"/><path class="cls-4" d="M221.79,132.72h-3.95a.84.84,0,0,1,0-1.67h3.95a.84.84,0,0,1,0,1.67Z"/><path class="cls-4" d="M245.56,132.72h-3.94a.84.84,0,1,1,0-1.67h3.94a.84.84,0,1,1,0,1.67Z"/><circle class="cls-6" cx="228.1" cy="148.66" r="3.73"/><circle class="cls-4" cx="273.49" cy="148.66" r="9.01"/><circle class="cls-6" cx="273.49" cy="148.66" r="3.73"/><path class="cls-4" d="M220.85,116.47a.82.82,0,0,1-.81-.63,10.08,10.08,0,0,0-11.36-7.44,9.92,9.92,0,0,0-4,1.6.84.84,0,0,1-.94-1.39,11.71,11.71,0,0,1,17.92,6.82.83.83,0,0,1-.61,1A.69.69,0,0,1,220.85,116.47Z"/></g><g id="Layer_3" data-name="Layer 3"><rect class="cls-2" x="486.34" y="172.81" width="115.63" height="16.17"/><path class="cls-4" d="M497.91,188.59a5.57,5.57,0,0,1-1,.09,2.92,2.92,0,0,1-2-.6,2.3,2.3,0,0,1-.64-1.6,4.15,4.15,0,0,1-.76.06,4.31,4.31,0,0,1-4.4-4.66,7.21,7.21,0,0,1,1.21-3.89,4.79,4.79,0,0,1,4.08-2.14,4.32,4.32,0,0,1,4.51,4.68,7,7,0,0,1-1.13,3.81,4.56,4.56,0,0,1-2,1.66c.17.39.49.54,1.16.54l.76,0,.31,0Zm-4.28-4.33c.74,0,1.19-.38,1.55-1.33a11.46,11.46,0,0,0,.51-3.07c0-1.08-.48-1.67-1.36-1.67-.69,0-1.12.37-1.46,1.28a11.66,11.66,0,0,0-.59,3.18C492.28,183.71,492.74,184.26,493.63,184.26Z"/><path class="cls-4" d="M509.08,182.39a4.87,4.87,0,0,1-1.1,2.9,4.8,4.8,0,0,1-3.5,1.24,4.08,4.08,0,0,1-3.37-1.32,2.5,2.5,0,0,1-.51-1.71,6,6,0,0,1,.1-1.11l1.06-6.36h3.15l-1.07,6.36a7.46,7.46,0,0,0-.08.77c0,.61.55,1,1.31,1a1.49,1.49,0,0,0,1.16-.5,2.68,2.68,0,0,0,.37-1.19l1.09-6.47h2.46Z"/><path class="cls-4" d="M512.72,176h2.93l-1.73,10.34H511Z"/><path class="cls-4" d="M525.75,182.73a5.58,5.58,0,0,1-1.32,2.43,4.21,4.21,0,0,1-3.29,1.43c-2.57,0-4.26-1.88-4.26-4.7a7,7,0,0,1,.87-3.41,4.8,4.8,0,0,1,4.43-2.68,3.86,3.86,0,0,1,4.06,4l-2.91.21a2.67,2.67,0,0,0-.19-1.21,1.09,1.09,0,0,0-1-.68c-.69,0-1.14.4-1.46,1.33a12.2,12.2,0,0,0-.53,3c0,1.07.42,1.61,1.24,1.61s1.24-.46,1.63-1.75Z"/><path class="cls-4" d="M528.81,176h2.87l-.33,1.94-.46,2.82a3.41,3.41,0,0,1,.64-1c.07-.1.35-.41.8-1,.31-.35.59-.76.9-1.1L534.7,176h3L534.18,180l2,6.41h-3l-1.17-4.26-1.58,1.75-.42,2.51h-2.86Z"/><path class="cls-4" d="M552.36,186.48a3.1,3.1,0,0,1-1,.16,2.85,2.85,0,0,1-2.19-.93,4.12,4.12,0,0,1-2.82.94c-2.34,0-4-1.28-4-3.16a3,3,0,0,1,1.05-2.31,6.16,6.16,0,0,1,1.81-.93,3.12,3.12,0,0,1-.68-1.85c0-1.61,1.26-2.66,3.15-2.66s3.16,1,3.16,2.48a2.79,2.79,0,0,1-.94,2,4.42,4.42,0,0,1-1.23.76l1,1.41a7.91,7.91,0,0,0,1-1.61l.17-.3,2.39.5A8.25,8.25,0,0,1,551.1,184a1,1,0,0,0,.93.39l.68,0ZM546.45,182a1.28,1.28,0,0,0-.91,1.22,1.18,1.18,0,0,0,1.28,1.22,1.73,1.73,0,0,0,1.09-.37Zm1.26-2.59a1.22,1.22,0,0,0,.93-1.06.71.71,0,0,0-.73-.73.69.69,0,0,0-.73.73,1.71,1.71,0,0,0,.47,1.09Z"/><path class="cls-4" d="M560.74,176h7.41l-.37,2.27h-4.43l-.27,1.62h3.72l-.37,2.25h-3.72L562.4,184H567l-.4,2.37H559Z"/><path class="cls-4" d="M572.79,176H576l1.61,10.34h-3.06l-.27-2.11h-2.78l-1,2.11H568Zm1.33,6.09-.42-3-1.36,3Z"/><path class="cls-4" d="M586,179.12a1.5,1.5,0,0,0-1.57-1c-.62,0-1,.26-1,.68s.2.51,1,.78c2.11.73,2.12.74,2.68,1.13a2.57,2.57,0,0,1,1.19,2.23c0,2.14-1.84,3.6-4.55,3.6a5.88,5.88,0,0,1-3.49-1,3.6,3.6,0,0,1-1.35-1.88l3-.57a1.77,1.77,0,0,0,1.92,1.09c.73,0,1.19-.3,1.19-.78a.56.56,0,0,0-.17-.39.9.9,0,0,0-.34-.21l-2-.75c-1.57-.57-2.31-1.47-2.31-2.79a3.23,3.23,0,0,1,1.32-2.62,4.75,4.75,0,0,1,2.85-.76,5.25,5.25,0,0,1,3.1.85,3.12,3.12,0,0,1,1.3,1.73Z"/><path class="cls-4" d="M592,181.75,589.59,176h3.27l1,2.76c.14.36.14.37.28.81.32-.51.34-.56.51-.81l1.84-2.76h2.81l-4.26,5.86-.75,4.48h-3.08Z"/><path class="cls-4" d="M491.83,195.56h2.49L490.88,216H488.4Z"/><path class="cls-4" d="M499.35,195.56h2.79l7.42,16.32,2.73-16.32h2L510.88,216h-2l-8-17.48L497.94,216h-2Z"/><path class="cls-4" d="M515.3,207.52h6.81l-.28,1.75H515Z"/><path class="cls-4" d="M536.92,200.65a5.36,5.36,0,0,0-5.37-3.71c-2.57,0-4.29,1.44-4.29,3.59a2.69,2.69,0,0,0,1.1,2.24c.83.58.83.61,3.53,1.29a14.51,14.51,0,0,1,4.33,1.5,5.09,5.09,0,0,1,2.39,4.48c0,3.86-3.07,6.41-7.79,6.41a9.53,9.53,0,0,1-5.83-1.81,7.49,7.49,0,0,1-2.48-3.87l2.24-.82a6.83,6.83,0,0,0,1.56,2.82,6.49,6.49,0,0,0,4.57,1.62c3,0,5.18-1.68,5.18-4.08a3,3,0,0,0-1.75-2.82,10.58,10.58,0,0,0-3.09-.92A13.28,13.28,0,0,1,527,205a4.82,4.82,0,0,1-2.2-4.17c0-3.41,2.76-5.77,6.74-5.77,3.71,0,6.29,1.62,7.58,4.81Z"/><path class="cls-4" d="M547.2,197.65h-5.92l.34-2.09H556l-.34,2.09h-5.92L546.62,216h-2.49Z"/><path class="cls-4" d="M557.14,199.92c1.78-3.1,4.45-4.76,7.57-4.76,4.73,0,7.76,3.53,7.76,9a16.27,16.27,0,0,1-1.53,6.75c-1.78,3.65-4.48,5.52-8,5.52-4.67,0-7.76-3.65-7.76-9.17A15,15,0,0,1,557.14,199.92ZM563,214.36c2.82,0,5-2.05,6.13-5.79a22.49,22.49,0,0,0,.77-5.1c0-3.77-2.09-6.25-5.25-6.25-2.64,0-4.66,1.78-5.83,5.12a17.52,17.52,0,0,0-.95,5.43C557.84,211.82,559.84,214.36,563,214.36Z"/><path class="cls-4" d="M577.94,195.56h6.37c2.43,0,3.78.25,4.88.89a5.15,5.15,0,0,1,2.52,4.54A5.54,5.54,0,0,1,587,206.6l2.89,9.42H587.2l-2.67-9h-6L577,216H574.5Zm5.58,9.45c2.14,0,3.43-.31,4.38-1.08a4,4,0,0,0,1.26-3c0-2.24-1.47-3.38-4.39-3.38h-4.69L578.83,205Z"/><path class="cls-4" d="M597.35,195.56h12.73l-.34,2H599.5l-1.14,6.74h8.78l-.34,2H598l-1.26,7.48h11.07l-.37,2.18H593.92Z"/><path class="cls-4" d="M489.84,224.2h6.75c3,0,4,.18,5.39,1a5.82,5.82,0,0,1,2.82,5.15,6.68,6.68,0,0,1-7.23,6.84h-4l-1.26,7.49H486.4Zm5.89,8.59c2.08,0,3.22-.77,3.22-2.18s-.95-2-2.7-2H495l-.7,4.17Z"/><path class="cls-4" d="M507.84,224.2h5.8l-3.43,20.46h-5.8Z"/><path class="cls-4" d="M532.07,237.45a10.78,10.78,0,0,1-2.6,4.81,8.31,8.31,0,0,1-6.5,2.83c-5.1,0-8.44-3.71-8.44-9.3a13.88,13.88,0,0,1,1.72-6.74,9.51,9.51,0,0,1,8.77-5.31,7.64,7.64,0,0,1,8,7.94l-5.77.43a5.21,5.21,0,0,0-.37-2.39,2.14,2.14,0,0,0-2.08-1.35c-1.35,0-2.24.8-2.89,2.64a23.83,23.83,0,0,0-1,6c0,2.12.83,3.19,2.45,3.19s2.46-.92,3.22-3.47Z"/><path class="cls-4" d="M536.62,224.2h5.67l-.64,3.83-.92,5.59a7.18,7.18,0,0,1,1.25-2.09c.16-.18.71-.8,1.6-1.87.61-.71,1.16-1.5,1.78-2.18l2.91-3.28h5.86l-6.9,7.76,3.92,12.7h-6l-2.3-8.44-3.13,3.47-.82,5h-5.68Z"/><path class="cls-4" d="M570.36,236.78c-.52,3.18-1.05,4.5-2.18,5.73a9.54,9.54,0,0,1-6.93,2.45c-3,0-5.37-.92-6.66-2.6a5,5,0,0,1-1-3.38,13.6,13.6,0,0,1,.18-2.2l2.12-12.58h6.23L560,236.78a11.75,11.75,0,0,0-.15,1.53c0,1.19,1.07,2,2.57,2a3,3,0,0,0,2.3-1,5.25,5.25,0,0,0,.74-2.36l2.15-12.79h4.87Z"/><path class="cls-4" d="M575.85,224.2h6.75c3,0,4,.18,5.4,1a5.84,5.84,0,0,1,2.82,5.15,6.69,6.69,0,0,1-7.24,6.84h-4l-1.26,7.49h-5.92Zm5.89,8.59c2.08,0,3.22-.77,3.22-2.18s-1-2-2.7-2H581l-.7,4.17Z"/><path class="cls-4" d="M591.31,239.23h5.61l-.92,5.43h-5.61Z"/><polygon class="cls-12" points="518.24 138.69 509.01 138.83 510.5 106.73 517.91 106.73 517.99 114.14 518.24 138.69"/><polygon class="cls-13" points="541.63 138.83 518.7 138.83 517.99 114.14 517.91 106.73 540.01 106.73 541.63 138.83"/><g class="cls-14"><circle class="cls-4" cx="522.26" cy="132.41" r="6.42"/><path class="cls-4" d="M541.17,138.6H538.6l-5.44-7.14v7.14h-3V126.21h2.76l5.25,6.9v-6.9h3Z"/></g><polygon class="cls-15" points="518.7 138.83 509.01 138.83 510.63 106.73 517.91 106.73 517.99 114.14 518.7 138.83"/><line class="cls-15" x1="517.99" y1="114.14" x2="517.78" y2="106.73"/><path class="cls-15" d="M522.79,111v-7A6.18,6.18,0,0,1,529,97.74h0a6.18,6.18,0,0,1,6.17,6.18v7"/><path class="cls-15" d="M516.61,106.46v-2.54a6.18,6.18,0,0,1,6.18-6.18h0a6.18,6.18,0,0,1,6.18,6.18v2.54"/><path class="cls-16" d="M515.38,143.22a54.26,54.26,0,0,0-5.52,13.36c-2.9-11-8.42-18.23-13.37-24.69-5.78-7.55-10.77-14.08-10.77-24.84a24.29,24.29,0,0,1,24.14-24.38,24,24,0,0,1,17.64,7.74,24.62,24.62,0,0,1,2,2.44"/></g><g id="Layer_4" data-name="Layer 4"><rect class="cls-2" x="770.58" y="172.88" width="202.52" height="16.13"/><path class="cls-4" d="M779.75,179.17a1.51,1.51,0,0,0-1.57-1c-.62,0-1,.26-1,.68s.2.51,1,.77a8.51,8.51,0,0,1,2.68,1.13A2.6,2.6,0,0,1,782,183c0,2.14-1.84,3.59-4.55,3.59a5.94,5.94,0,0,1-3.49-1,3.68,3.68,0,0,1-1.35-1.88l3-.57a1.77,1.77,0,0,0,1.92,1.08c.73,0,1.19-.29,1.19-.77a.56.56,0,0,0-.17-.39,1.09,1.09,0,0,0-.34-.22l-2-.74c-1.57-.58-2.31-1.47-2.31-2.79a3.19,3.19,0,0,1,1.32-2.62,4.75,4.75,0,0,1,2.85-.76,5.25,5.25,0,0,1,3.1.85,3.1,3.1,0,0,1,1.3,1.72Z"/><path class="cls-4" d="M785.08,176.09h3l-.64,3.81h2.68l.64-3.81h3L792,186.43h-3l.7-4.16H787l-.7,4.16h-3Z"/><path class="cls-4" d="M796.59,177.44a5.2,5.2,0,0,1,3.79-1.61c2.69,0,4.44,1.85,4.44,4.74a7.22,7.22,0,0,1-1.2,3.94,4.94,4.94,0,0,1-4.16,2.18,4.35,4.35,0,0,1-4.53-4.65A7.08,7.08,0,0,1,796.59,177.44Zm2.9,6.85c.81,0,1.37-.57,1.66-1.74a14.08,14.08,0,0,0,.45-2.71c0-1-.5-1.61-1.33-1.61s-1.31.54-1.63,1.58a12.42,12.42,0,0,0-.47,2.88C798.17,183.76,798.61,184.29,799.49,184.29Z"/><path class="cls-4" d="M807.75,176.09h3.41a4.64,4.64,0,0,1,2.73.49,3,3,0,0,1,1.43,2.61,3.38,3.38,0,0,1-3.66,3.46h-2l-.63,3.78h-3Zm3,4.34c1,0,1.63-.39,1.63-1.1s-.48-1-1.37-1h-.62l-.35,2.11Z"/><path class="cls-4" d="M822.46,176.09h7.27l-.38,2.32h-4.28l-.31,1.83h3.32l-.38,2.25h-3.32l-.66,3.94h-3Z"/><path class="cls-4" d="M831.51,176.09H836a4.25,4.25,0,0,1,2.45.57,2.92,2.92,0,0,1,1.16,2.44,3.13,3.13,0,0,1-1,2.4,3.43,3.43,0,0,1-1.12.6l1.13,4.33h-3.07l-.91-3.92h-1.22l-.66,3.92h-2.94Zm3.4,4.26a1.91,1.91,0,0,0,1.21-.26,1.07,1.07,0,0,0,.46-.85c0-.64-.48-1-1.41-1h-1.08l-.34,2.09Z"/><path class="cls-4" d="M842.71,177.44a5.18,5.18,0,0,1,3.78-1.61c2.69,0,4.45,1.85,4.45,4.74a7.23,7.23,0,0,1-1.21,3.94,4.94,4.94,0,0,1-4.16,2.18,4.35,4.35,0,0,1-4.52-4.65A7,7,0,0,1,842.71,177.44Zm2.89,6.85c.81,0,1.37-.57,1.66-1.74a14.08,14.08,0,0,0,.45-2.71c0-1-.49-1.61-1.33-1.61s-1.3.54-1.63,1.58a12.38,12.38,0,0,0-.46,2.88C844.29,183.76,844.72,184.29,845.6,184.29Z"/><path class="cls-4" d="M853.87,176.09H858l.54,4.57.08.59a.92.92,0,0,0,.05.2,5.81,5.81,0,0,1,.31-.79l2-4.57h4.19l-1.74,10.34h-2.9l.92-5.51a9.79,9.79,0,0,1,.25-1.22l.26-1.1.12-.59-.14.36-.26.71a11.18,11.18,0,0,1-.56,1.33l-2.66,6h-1.86l-.72-6c0-.12-.06-.62-.09-1.07l-.06-1c0-.07,0-.22,0-.45-.25,2.28-.28,2.51-.48,3.69l-.81,4.85h-2.34Z"/><path class="cls-4" d="M873.54,181.81l-2.44-5.72h3.27l1,2.76c.14.35.14.37.28.8.33-.51.34-.55.51-.8l1.85-2.76h2.8L876.59,182l-.75,4.48h-3.08Z"/><path class="cls-4" d="M882.15,177.44a5.2,5.2,0,0,1,3.79-1.61c2.69,0,4.44,1.85,4.44,4.74a7.22,7.22,0,0,1-1.2,3.94,4.94,4.94,0,0,1-4.16,2.18,4.35,4.35,0,0,1-4.53-4.65A7.08,7.08,0,0,1,882.15,177.44Zm2.9,6.85c.81,0,1.37-.57,1.66-1.74a14.08,14.08,0,0,0,.45-2.71c0-1-.5-1.61-1.33-1.61s-1.3.54-1.63,1.58a12.42,12.42,0,0,0-.47,2.88C883.73,183.76,884.17,184.29,885.05,184.29Z"/><path class="cls-4" d="M900.52,182.44a4.91,4.91,0,0,1-1.1,2.9,4.8,4.8,0,0,1-3.5,1.24,4.08,4.08,0,0,1-3.37-1.31,2.53,2.53,0,0,1-.51-1.71,7,7,0,0,1,.09-1.12l1.07-6.35h3.15l-1.07,6.35a5.4,5.4,0,0,0-.08.78c0,.6.55,1,1.31,1a1.51,1.51,0,0,0,1.16-.49,2.74,2.74,0,0,0,.37-1.2l1.09-6.46h2.46Z"/><path class="cls-4" d="M904.07,176.09h4.5a4.21,4.21,0,0,1,2.44.57,2.93,2.93,0,0,1,1.17,2.44,3.14,3.14,0,0,1-1.06,2.4,3.48,3.48,0,0,1-1.11.6l1.13,4.33h-3.07l-.92-3.92h-1.22l-.65,3.92h-2.95Zm3.39,4.26a1.91,1.91,0,0,0,1.21-.26,1.08,1.08,0,0,0,.47-.85c0-.64-.48-1-1.41-1h-1.09l-.34,2.09Z"/><path class="cls-4" d="M919.79,176.09h3.41a4.61,4.61,0,0,1,2.72.49,3,3,0,0,1,1.43,2.61,3.38,3.38,0,0,1-3.66,3.46h-2l-.64,3.78h-3Zm3,4.34c1.06,0,1.63-.39,1.63-1.1s-.48-1-1.36-1h-.62l-.36,2.11Z"/><path class="cls-4" d="M929.66,176.09h3L932,179.9h2.68l.63-3.81h3l-1.73,10.34h-3l.7-4.16h-2.7l-.69,4.16h-3Z"/><path class="cls-4" d="M941.18,177.44a5.19,5.19,0,0,1,3.78-1.61c2.7,0,4.45,1.85,4.45,4.74a7.23,7.23,0,0,1-1.21,3.94,4.94,4.94,0,0,1-4.16,2.18,4.35,4.35,0,0,1-4.52-4.65A7,7,0,0,1,941.18,177.44Zm2.9,6.85c.8,0,1.36-.57,1.65-1.74a14.08,14.08,0,0,0,.45-2.71c0-1-.49-1.61-1.33-1.61s-1.3.54-1.63,1.58a12.38,12.38,0,0,0-.46,2.88C942.76,183.76,943.19,184.29,944.08,184.29Z"/><path class="cls-4" d="M952.34,176.09h2.77l1.13,2.39a29.07,29.07,0,0,1,1.55,3.69,3.41,3.41,0,0,1,0-.5c0-.23.1-1,.2-1.66l.67-3.92h2.47l-1.74,10.34h-2.29l-2-4a12.72,12.72,0,0,1-1-2.57l0,.38a6,6,0,0,1-.13,1.09l-.83,5.07H950.6Z"/><path class="cls-4" d="M963.67,176.09h7.41l-.37,2.26h-4.44L966,180h3.72l-.37,2.25h-3.72l-.31,1.83H970l-.41,2.37h-7.61Z"/><path class="cls-4" d="M776.35,196.15H782c3.22,0,4.94.68,6.56,2.55a9.6,9.6,0,0,1,2.12,6.47A12.68,12.68,0,0,1,787.4,214c-1.81,1.9-3.69,2.61-6.94,2.61h-7.54Zm3.53,18.4H780c3.44,0,5.4-1.07,6.84-3.83a12.53,12.53,0,0,0,1.32-5.73,7.87,7.87,0,0,0-1.5-5.07c-1.07-1.28-2.61-1.87-5-1.84l-3.19,0-2.73,16.4Z"/><path class="cls-4" d="M795.13,200.51c1.78-3.1,4.44-4.76,7.57-4.76,4.73,0,7.76,3.53,7.76,9a16.27,16.27,0,0,1-1.53,6.75c-1.78,3.65-4.48,5.52-8,5.52-4.66,0-7.76-3.65-7.76-9.17A15.05,15.05,0,0,1,795.13,200.51ZM801,215c2.83,0,5-2,6.14-5.79a22.41,22.41,0,0,0,.77-5.09c0-3.78-2.09-6.26-5.25-6.26-2.64,0-4.66,1.78-5.83,5.12a17.52,17.52,0,0,0-.95,5.43C795.83,212.41,797.83,215,801,215Z"/><path class="cls-4" d="M813.38,196.15h2.51l1.63,16.9,6.9-16.9h1.9l2.12,16.9,6.81-16.9h2.11l-8.28,20.46h-2.51l-2-16.32L818,216.61h-2.67Z"/><path class="cls-4" d="M840.53,196.15h2.79l7.42,16.32,2.73-16.32h2l-3.43,20.46h-2l-8-17.48-2.91,17.48h-2Z"/><path class="cls-4" d="M860.62,196.15h2.48L860,214.43h10.15l-.37,2.18H857.18Z"/><path class="cls-4" d="M873.81,200.51c1.78-3.1,4.44-4.76,7.57-4.76,4.73,0,7.76,3.53,7.76,9a16.27,16.27,0,0,1-1.53,6.75c-1.78,3.65-4.48,5.52-8,5.52-4.66,0-7.75-3.65-7.75-9.17A15,15,0,0,1,873.81,200.51ZM879.63,215c2.83,0,5-2,6.14-5.79a22.41,22.41,0,0,0,.77-5.09c0-3.78-2.09-6.26-5.25-6.26-2.64,0-4.66,1.78-5.83,5.12a17.52,17.52,0,0,0-1,5.43C874.51,212.41,876.51,215,879.63,215Z"/><path class="cls-4" d="M899,196.15h2.85l3.56,20.46h-2.64l-1-6H894.3l-2.95,6H889Zm2.42,12.42-1.59-9.41-4.6,9.41Z"/><path class="cls-4" d="M911.91,196.15h5.64c3.22,0,4.94.68,6.56,2.55a9.6,9.6,0,0,1,2.12,6.47A12.68,12.68,0,0,1,923,214c-1.81,1.9-3.68,2.61-6.94,2.61h-7.54Zm3.52,18.4h.12c3.44,0,5.4-1.07,6.84-3.83a12.53,12.53,0,0,0,1.32-5.73,7.87,7.87,0,0,0-1.5-5.07c-1.07-1.28-2.61-1.87-5-1.84l-3.19,0-2.73,16.4Z"/><path class="cls-4" d="M776.51,229.42h-4.39l.8-4.69H787.7l-.76,4.69h-4.51l-2.64,15.83h-5.95Z"/><path class="cls-4" d="M789.73,224.79h5.92l-1.26,7.55h5.31l1.25-7.55h5.95l-3.43,20.46h-5.92l1.38-8.22h-5.34l-1.38,8.22h-5.92Z"/><path class="cls-4" d="M810.46,224.79h14.66l-.73,4.48h-8.77l-.52,3.22h7.36l-.74,4.45h-7.36l-.61,3.62h9.14l-.8,4.69H807Z"/><path class="cls-4" d="M840.19,224.79h6.41l3.19,20.46h-6l-.56-4.17H837.7l-1.9,4.17h-5.06Zm2.64,12.05-.83-5.92-2.7,5.92Z"/><path class="cls-4" d="M855,224.79h6.75c3,0,4,.18,5.4,1a5.83,5.83,0,0,1,2.82,5.15,6.66,6.66,0,0,1-7.24,6.84h-4l-1.26,7.49H851.6Zm5.89,8.59c2.09,0,3.22-.77,3.22-2.18s-.95-2-2.7-2h-1.22l-.71,4.17Z"/><path class="cls-4" d="M873,224.79h6.75c3,0,4,.18,5.4,1a5.83,5.83,0,0,1,2.82,5.15,6.68,6.68,0,0,1-7.24,6.84h-4l-1.25,7.49h-5.92Zm5.89,8.59c2.09,0,3.22-.77,3.22-2.18s-.95-2-2.7-2h-1.23l-.7,4.17Z"/><path class="cls-4" d="M888.5,239.82h5.61l-.92,5.43h-5.61Z"/><rect class="cls-6" x="771.59" y="87.84" width="39.24" height="68.84" rx="2.41"/><path class="cls-4" d="M806,157.61H776.46a5.8,5.8,0,0,1-5.8-5.8V92.71a5.8,5.8,0,0,1,5.8-5.8H806a5.8,5.8,0,0,1,5.79,5.8v59.1A5.8,5.8,0,0,1,806,157.61ZM776.46,88.77a3.94,3.94,0,0,0-3.94,3.94v59.1a4,4,0,0,0,3.94,3.94H806a4,4,0,0,0,3.94-3.94V92.71A3.94,3.94,0,0,0,806,88.77Z"/><circle class="cls-4" cx="791.21" cy="151.04" r="3.18"/><path class="cls-4" d="M764.19,121.4H753.74a.93.93,0,0,1,0-1.86h10.45a.93.93,0,1,1,0,1.86Z"/><path class="cls-4" d="M764.19,114.38a.93.93,0,0,1-.66-.27l-7.38-7.39a.91.91,0,0,1,0-1.31.93.93,0,0,1,1.31,0l7.38,7.38a.92.92,0,0,1,0,1.32A.91.91,0,0,1,764.19,114.38Z"/><path class="cls-4" d="M756.8,135.81a.93.93,0,0,1-.65-1.59l7.38-7.38a.93.93,0,0,1,1.31,0,.91.91,0,0,1,0,1.31l-7.38,7.39A.93.93,0,0,1,756.8,135.81Z"/><path class="cls-4" d="M829,121.4H818.53a.93.93,0,0,1,0-1.86H829a.93.93,0,1,1,0,1.86Z"/><path class="cls-4" d="M818.53,114.38a.93.93,0,0,1-.66-1.59l7.39-7.38a.93.93,0,0,1,1.31,1.31l-7.38,7.39A.93.93,0,0,1,818.53,114.38Z"/><path class="cls-4" d="M825.92,135.81a.93.93,0,0,1-.66-.27l-7.39-7.39a.93.93,0,0,1,0-1.31.94.94,0,0,1,1.32,0l7.38,7.38a.94.94,0,0,1,0,1.32A.92.92,0,0,1,825.92,135.81Z"/><polyline class="cls-4" points="779.46 87.84 783.24 91.43 799.56 91.43 802.97 88.02"/><rect class="cls-4" x="779.7" y="108.58" width="23.03" height="23.03" rx="2.52"/><circle class="cls-7" cx="786.85" cy="120.1" r="4.25"/><path class="cls-7" d="M799.37,124.2h-1.7l-3.61-4.73v4.73h-2V116h1.83l3.48,4.57V116h2Z"/></g><g id="Layer_5" data-name="Layer 5"><rect class="cls-2" x="1083.38" y="172.81" width="46.45" height="16.19"/><path class="cls-4" d="M1088.63,176h7.27l-.39,2.33h-4.28l-.31,1.83h3.32l-.37,2.24h-3.32l-.67,3.94h-3Z"/><path class="cls-4" d="M1097.68,176h4.49a4.22,4.22,0,0,1,2.45.58,2.92,2.92,0,0,1,1.17,2.43,3.12,3.12,0,0,1-1.06,2.4,3.3,3.3,0,0,1-1.11.61l1.13,4.32h-3.07l-.92-3.92h-1.22l-.65,3.92h-3Zm3.39,4.26a1.91,1.91,0,0,0,1.21-.26,1.06,1.06,0,0,0,.47-.85c0-.64-.48-1-1.41-1h-1.09l-.34,2.09Z"/><path class="cls-4" d="M1108.75,176h7.41l-.38,2.26h-4.43l-.26,1.63h3.72l-.37,2.25h-3.73l-.31,1.83H1115l-.4,2.37H1107Z"/><path class="cls-4" d="M1118.4,176h7.41l-.37,2.26H1121l-.27,1.63h3.72l-.37,2.25h-3.72l-.31,1.83h4.62l-.4,2.37h-7.61Z"/><path class="cls-4" d="M1087.23,195.25h6.38c2.43,0,3.78.25,4.88.89a5.16,5.16,0,0,1,2.51,4.54,5.55,5.55,0,0,1-4.75,5.62l2.88,9.41h-2.63l-2.67-9h-6l-1.51,9h-2.48Zm5.59,9.45c2.14,0,3.43-.31,4.38-1.07a4,4,0,0,0,1.26-3c0-2.24-1.47-3.37-4.39-3.37h-4.69l-1.26,7.45Z"/><path class="cls-4" d="M1106.65,195.25h12.73l-.34,2H1108.8l-1.14,6.75h8.77l-.33,2h-8.77l-1.26,7.48h11.07l-.37,2.18h-13.55Z"/><path class="cls-4" d="M1127.23,197.34h-5.92l.34-2.09H1136l-.33,2.09h-5.92l-3.1,18.37h-2.48Z"/><path class="cls-4" d="M1150.85,207.71c-.61,3.71-1.32,5.36-2.7,6.65a7.64,7.64,0,0,1-5.24,1.81c-4.2,0-6.75-2.14-6.75-5.73a21.32,21.32,0,0,1,.52-3.87l1.87-11.32h2.52l-2,11.87a16.38,16.38,0,0,0-.43,3.16c0,2.33,1.72,3.84,4.39,3.84a5.41,5.41,0,0,0,3.89-1.44c1-1,1.35-2,1.81-4.73l2.12-12.7h2.06Z"/><path class="cls-4" d="M1157.75,195.25h6.38c2.43,0,3.78.25,4.88.89a5.15,5.15,0,0,1,2.52,4.54,5.55,5.55,0,0,1-4.76,5.62l2.88,9.41H1167l-2.67-9h-6l-1.51,9h-2.48Zm5.59,9.45c2.14,0,3.43-.31,4.38-1.07a4,4,0,0,0,1.26-3c0-2.24-1.47-3.37-4.39-3.37h-4.69l-1.26,7.45Z"/><path class="cls-4" d="M1177.17,195.25H1180l7.42,16.32,2.73-16.32h2l-3.44,20.46h-2l-8-17.48-2.91,17.48h-2Z"/><path class="cls-4" d="M1207.08,200.35a5.36,5.36,0,0,0-5.37-3.72c-2.58,0-4.29,1.45-4.29,3.59a2.69,2.69,0,0,0,1.1,2.24c.83.58.83.62,3.53,1.29a14.41,14.41,0,0,1,4.32,1.5,5.08,5.08,0,0,1,2.39,4.48c0,3.87-3.06,6.41-7.79,6.41a9.45,9.45,0,0,1-5.82-1.81,7.51,7.51,0,0,1-2.49-3.86l2.24-.83a6.66,6.66,0,0,0,1.57,2.82,6.5,6.5,0,0,0,4.57,1.63c3,0,5.18-1.69,5.18-4.08a3,3,0,0,0-1.75-2.82,10.36,10.36,0,0,0-3.1-.92,13.09,13.09,0,0,1-4.26-1.63,4.81,4.81,0,0,1-2.21-4.17c0-3.41,2.76-5.77,6.75-5.77,3.71,0,6.29,1.63,7.57,4.82Z"/><path class="cls-4" d="M1235.76,216a7.9,7.9,0,0,1-1.9.27,3.67,3.67,0,0,1-2.12-.64,8.76,8.76,0,0,1-1.17-1.26c-2.39,1.54-3.46,1.93-5.3,1.93a6.25,6.25,0,0,1-6.56-6,6.07,6.07,0,0,1,3.58-5.49,26.11,26.11,0,0,1,3-1.19,9.77,9.77,0,0,1-1.47-4.57c0-2.46,2.11-4.33,4.87-4.33s4.82,1.81,4.82,4.33a4.82,4.82,0,0,1-2.55,4.17,22.89,22.89,0,0,1-2.88,1.41l3.25,6.65a20.52,20.52,0,0,0,4.26-6.65l1.81.7a22.77,22.77,0,0,1-5.12,7.7c.61,1,1.14,1.35,2,1.35a9,9,0,0,0,1.84-.24ZM1226,205.13c-3.34,1.29-4.72,2.73-4.72,5.06a4.19,4.19,0,0,0,4.29,4.2,6.28,6.28,0,0,0,4-1.71Zm2-2.39c2.33-1,3.37-2.21,3.37-3.77a2.53,2.53,0,0,0-2.7-2.52,2.64,2.64,0,0,0-2.73,2.76,9.16,9.16,0,0,0,1.48,3.8Z"/><path class="cls-4" d="M1085.24,223.89h14.66l-.73,4.48h-8.78l-.52,3.22h7.36l-.73,4.45h-7.36l-.62,3.62h9.14l-.8,4.69h-15Z"/><path class="cls-4" d="M1105.7,233.43l-4.57-9.54h6.5l1.84,4.14c.12.25.25.59.62,1.57l1.5-2.06,2.64-3.65h5.49l-7.43,9.85,5,10.61h-6.5l-2.27-5.21-.24-.62-.43-.86-.22.31c-.24.31-.46.65-.67.95l-3.77,5.43h-5.53Z"/><path class="cls-4" d="M1136.89,237.14a11,11,0,0,1-2.6,4.82,8.33,8.33,0,0,1-6.5,2.82c-5.1,0-8.44-3.71-8.44-9.29a13.89,13.89,0,0,1,1.72-6.75,9.51,9.51,0,0,1,8.77-5.31,7.64,7.64,0,0,1,8,7.95l-5.77.43a5.23,5.23,0,0,0-.37-2.4,2.16,2.16,0,0,0-2.08-1.35c-1.35,0-2.24.8-2.89,2.64a23.83,23.83,0,0,0-1,6c0,2.12.83,3.19,2.45,3.19s2.46-.92,3.22-3.46Z"/><path class="cls-4" d="M1141.44,223.89h5.92l-1.26,7.55h5.3l1.26-7.55h5.95l-3.43,20.46h-5.92l1.38-8.22h-5.34l-1.38,8.22H1138Z"/><path class="cls-4" d="M1166.65,223.89h6.41l3.19,20.46h-6l-.55-4.17h-5.49l-1.91,4.17h-5.06Zm2.64,12.06-.83-5.92-2.7,5.92Z"/><path class="cls-4" d="M1181.5,223.89H1187l2.24,4.73a59.65,59.65,0,0,1,3.06,7.3,6.57,6.57,0,0,1-.06-1c0-.46.19-1.93.4-3.28l1.32-7.76h4.88l-3.44,20.46h-4.54L1187,236.5a24.56,24.56,0,0,1-2-5.09l0,.76a11.38,11.38,0,0,1-.24,2.15l-1.66,10h-5Z"/><path class="cls-4" d="M1213.37,242.11c-1.38,1.9-2.95,2.64-5.65,2.64-4.87,0-8.13-3.53-8.13-8.77a14.46,14.46,0,0,1,2.89-8.8,9.49,9.49,0,0,1,7.82-3.78,8.74,8.74,0,0,1,6.23,2.24,8.62,8.62,0,0,1,2.39,4.36l-5.62.92c-.46-1.87-1.44-2.73-3.06-2.73s-2.82,1.19-3.53,3.68a17.89,17.89,0,0,0-.67,4.6c0,2.3,1,3.53,2.82,3.53,1.5,0,2.39-.71,3.13-2.52h-3.35l.74-4.32h9l-1.87,11.19h-3Z"/><path class="cls-4" d="M1223.28,223.89h14.66l-.74,4.48h-8.77l-.52,3.22h7.36l-.74,4.45h-7.36l-.61,3.62h9.14l-.8,4.69h-15.06Z"/><path class="cls-4" d="M1251,230a3,3,0,0,0-3.09-2c-1.23,0-2,.52-2,1.35s.4,1,1.87,1.54c4.17,1.44,4.21,1.47,5.31,2.23a5.15,5.15,0,0,1,2.36,4.42c0,4.23-3.65,7.12-9,7.12a11.67,11.67,0,0,1-6.9-2,7.29,7.29,0,0,1-2.67-3.71l5.89-1.13c.62,1.5,1.75,2.14,3.81,2.14,1.44,0,2.36-.58,2.36-1.53a1.15,1.15,0,0,0-.34-.77,2.06,2.06,0,0,0-.67-.42l-4-1.48c-3.1-1.13-4.57-2.91-4.57-5.52a6.37,6.37,0,0,1,2.6-5.18,9.46,9.46,0,0,1,5.65-1.5,10.37,10.37,0,0,1,6.13,1.68,6.14,6.14,0,0,1,2.58,3.41Z"/><path class="cls-4" d="M1257.75,238.92h5.62l-.92,5.43h-5.62Z"/><g class="cls-17"><polygon class="cls-12" points="1094.4 114.53 1092.69 148.49 1096.23 150.77 1100.24 154.1 1104.66 155.33 1110.02 156.59 1107.4 137.78 1105.72 113.51 1102.83 112.65 1094.73 113.06 1094.4 114.53"/><polygon class="cls-6" points="1105.37 114.31 1106.55 112.94 1137.1 113.2 1138.73 114.18 1140.82 160.8 1110.72 160.93 1108.9 160.15 1107.26 138.4 1105.37 114.31"/><g class="cls-18"><circle class="cls-4" cx="1112.01" cy="147.32" r="9.53"/><path class="cls-4" d="M1140.08,156.53h-3.82l-8.08-10.61v10.61h-4.53V138.12h4.1l7.8,10.25V138.12h4.53Z"/></g><path class="cls-4" d="M1109.22,161.5a.79.79,0,0,1-.79-.73l-3.87-47.65a.79.79,0,1,1,1.58-.13l3.87,47.65a.8.8,0,0,1-.73.86Z"/><path class="cls-4" d="M1139.14,113a.79.79,0,0,0-.79-.76h-43.62a.79.79,0,0,0-.79.76l-2.41,47.65a.78.78,0,0,0,.22.58.79.79,0,0,0,.58.25h48.43a.8.8,0,0,0,.79-.83Zm-46,46.9,2.33-46.07h42.1l2.33,46.07Z"/><path class="cls-4" d="M1122,113.44a.79.79,0,0,1-.8-.79v-3.77a8.38,8.38,0,0,0-16.75,0v3.77a.79.79,0,0,1-.79.79.79.79,0,0,1-.8-.79v-3.77a10,10,0,0,1,19.93,0v3.77A.79.79,0,0,1,1122,113.44Z"/><path class="cls-4" d="M1092.33,161.42a.71.71,0,0,1-.42-1.29l8.33-6a.72.72,0,0,1,.82,0l8.33,5.64a.71.71,0,0,1,.19,1,.72.72,0,0,1-1,.19l-7.93-5.37-7.93,5.74A.7.7,0,0,1,1092.33,161.42Z"/><path class="cls-4" d="M1100.66,155.47a.8.8,0,0,1-.79-.78l-.54-25a.79.79,0,0,1,.77-.81h0a.8.8,0,0,1,.79.78l.54,25a.79.79,0,0,1-.77.81Z"/><path class="cls-4" d="M1131.13,120.11a.8.8,0,0,1-.8-.79V108.88a8.38,8.38,0,0,0-16.75,0v10.44a.79.79,0,0,1-.79.79.8.8,0,0,1-.8-.79V108.88a10,10,0,0,1,19.93,0v10.44A.8.8,0,0,1,1131.13,120.11Z"/></g><path class="cls-4" d="M1116.08,158a35.66,35.66,0,0,1-35.66-34.69.8.8,0,0,1,.77-.82h0a.79.79,0,0,1,.79.77,34.07,34.07,0,0,0,65.23,12.87.78.78,0,0,1,1-.4.8.8,0,0,1,.41,1A35.7,35.7,0,0,1,1116.08,158Z"/><path class="cls-4" d="M1151,123.78a.73.73,0,0,1-.25,0,.79.79,0,0,1-.54-.77,34.08,34.08,0,0,0-65.24-14.39,35.14,35.14,0,0,0-1.64,4.54.79.79,0,1,1-1.52-.43,35.67,35.67,0,0,1,70,7.9l1.74-2.41a.79.79,0,0,1,1.11-.18.81.81,0,0,1,.18,1.11l-3.14,4.34A.82.82,0,0,1,1151,123.78Z"/><path class="cls-4" d="M1151,123.78a.79.79,0,0,1-.63-.32l-3.3-4.35a.81.81,0,0,1,.16-1.12.8.8,0,0,1,1.11.16l3.3,4.36a.8.8,0,0,1-.16,1.11A.77.77,0,0,1,1151,123.78Z"/><path class="cls-4" d="M1084.75,128.6a.79.79,0,0,1-.63-.31l-3.51-4.51a.8.8,0,0,1,.13-1.12.82.82,0,0,1,1.12.14l3.51,4.52a.8.8,0,0,1-.62,1.28Z"/><path class="cls-4" d="M1078.51,128.74a.83.83,0,0,1-.4-.11.78.78,0,0,1-.28-1.08l2.72-4.66a.78.78,0,0,1,1.08-.28.79.79,0,0,1,.29,1.08l-2.72,4.66A.81.81,0,0,1,1078.51,128.74Z"/></g></svg>