<svg id="_220408_31_M6626_Clearance_HP_US_XL.svg" data-name="220408_31_M6626_Clearance_HP_US_XL.svg" xmlns="http://www.w3.org/2000/svg" width="1440" height="183" viewBox="0 0 1440 183">
  <defs>
    <style>
      .cls-1 {
        fill: #da0b2f;
      }

      .cls-2 {
        fill: #fff;
        fill-rule: evenodd;
      }
    </style>
  </defs>
  <rect id="Rectangle_1851_copy" data-name="Rectangle 1851 copy" class="cls-1" width="1440" height="183"/>
  <g id="PP">
    <g>
      <path id="_99" data-name="99" class="cls-2" d="M1287.13,3905.19c-3.31,0-5.72-1.07-8.58-3.36l-4.54,6.55a18.956,18.956,0,0,0,12.89,4.64c11.16,0,17.16-8.67,17.16-21.38v-0.11c0-7.73-1.85-11.98-4.65-14.78-2.97-2.97-6.06-4.26-11.33-4.26-8.86,0-14.97,5.82-14.97,13.72v0.11c0,7.95,5.49,12.65,14.02,12.65a11.979,11.979,0,0,0,7.96-2.69C1294.75,3899.64,1293.07,3905.19,1287.13,3905.19Zm1.4-13.38c-4.26,0-6.84-2.41-6.84-5.88v-0.11c0-3.47,2.41-5.94,6.67-5.94,4.32,0,6.9,2.52,6.9,5.99v0.11C1295.26,3889.34,1292.79,3891.81,1288.53,3891.81Zm34.75,13.38c-3.31,0-5.72-1.07-8.58-3.36l-4.54,6.55a18.956,18.956,0,0,0,12.89,4.64c11.16,0,17.16-8.67,17.16-21.38v-0.11c0-7.73-1.85-11.98-4.65-14.78-2.97-2.97-6.06-4.26-11.33-4.26-8.86,0-14.97,5.82-14.97,13.72v0.11c0,7.95,5.49,12.65,14.02,12.65a11.979,11.979,0,0,0,7.96-2.69C1330.91,3899.64,1329.22,3905.19,1323.28,3905.19Zm1.4-13.38c-4.26,0-6.84-2.41-6.84-5.88v-0.11c0-3.47,2.41-5.94,6.67-5.94,4.32,0,6.9,2.52,6.9,5.99v0.11C1331.41,3889.34,1328.94,3891.81,1324.68,3891.81Z" transform="translate(0 -3774)"/>
      <path id="_2" data-name="$2" class="cls-2" d="M1187.56,3874.44a20.7,20.7,0,0,0-9.37-3.67v-3.07h-5.24v2.92c-6.34.65-10.57,4.32-10.57,9.85v0.1c0,5.98,3.57,8.7,10.82,10.66v7.99a19.966,19.966,0,0,1-8.21-4.07l-3.92,5.73a25.411,25.411,0,0,0,11.88,4.78v5.07h5.24v-4.97c6.35-.66,10.68-4.28,10.68-9.91v-0.1c0-5.63-3.28-8.7-10.93-10.76v-7.64a21.519,21.519,0,0,1,6.24,2.97Zm-6.05,21.71v0.1c0,1.81-1.21,2.87-3.57,3.22v-7.04C1180.66,3893.44,1181.51,3894.5,1181.51,3896.15Zm-11.78-16.03v-0.1c0-1.61,1.01-2.82,3.47-3.12v6.84C1170.43,3882.73,1169.73,3881.73,1169.73,3880.12Zm25.17,76.02h62.66v-16.06h-36.9l13.79-10.62c15-11.6,22.26-18.6,22.26-32.73v-0.24c0-15.82-11.61-26.08-29.15-26.08-15.12,0-23.23,6.16-31.57,17.51l13.06,10.5c6.29-7.73,10.77-11.35,17.3-11.35,6.65,0,11.37,3.87,11.37,10.99,0,7-4.11,11.59-14.64,20.29l-28.18,23.06v14.73Z" transform="translate(0 -3774)"/>
    </g>
    <g>
      <path id="FROM" class="cls-2" d="M1039.8,3926.01h3.19v-7.4h9.15v-2.9h-9.15v-4.96h10.32v-2.9H1039.8v18.16Zm20.24,0h3.19v-6.33h4l4.46,6.33h3.78l-4.9-6.88a5.45,5.45,0,0,0,4.31-5.5v-0.05a5.51,5.51,0,0,0-1.51-3.92,7.312,7.312,0,0,0-5.24-1.81h-8.09v18.16Zm3.19-9.16v-6.1h4.64c2.36,0,3.76,1.06,3.76,3.01v0.05c0,1.84-1.45,3.04-3.73,3.04h-4.67Zm27.46,9.47a9.3,9.3,0,0,0,9.51-9.39v-0.06a9.491,9.491,0,0,0-18.98.06v0.05A9.218,9.218,0,0,0,1090.69,3926.32Zm0.05-2.96a6.2,6.2,0,0,1-6.17-6.43v-0.06a6.13,6.13,0,0,1,6.12-6.4,6.221,6.221,0,0,1,6.17,6.46v0.05A6.113,6.113,0,0,1,1090.74,3923.36Zm16.56,2.65h3.14v-12.98l5.68,8.51h0.1l5.73-8.56v13.03h3.19v-18.16h-3.4l-5.52,8.58-5.52-8.58h-3.4v18.16Z" transform="translate(0 -3774)"/>
      <path id="STYLES" class="cls-2" d="M992.194,3893.25c5.387,0,8.966-2.7,8.966-7.23v-0.07c0-4.15-3.167-5.8-8.237-6.91-3.106-.7-3.866-1.14-3.866-2.16v-0.06c0-.82.729-1.43,2.218-1.43a10.877,10.877,0,0,1,6.211,2.19l3.074-4.34a13.927,13.927,0,0,0-9.126-2.95c-5.324,0-8.588,2.98-8.588,7.1v0.07c0,4.53,3.644,5.86,8.366,6.94,3.042,0.73,3.771,1.2,3.771,2.16v0.06c0,0.95-.888,1.52-2.567,1.52a11.5,11.5,0,0,1-7.193-2.66l-3.422,4.09A15.553,15.553,0,0,0,992.194,3893.25Zm20.686-.39h6.15v-16.8h6.65v-5.39h-19.42v5.39h6.62v16.8Zm25.89,0h6.14v-8.4l8.43-13.79h-6.87l-4.6,8.09-4.56-8.09h-7l8.46,13.89v8.3Zm20.43,0h16.89v-5.39h-10.74v-16.8h-6.15v22.19Zm23.51,0h18v-5.23h-11.92v-3.52h10.65v-4.85h-10.65v-3.39h11.76v-5.2h-17.84v22.19Zm33.84,0.39c5.38,0,8.96-2.7,8.96-7.23v-0.07c0-4.15-3.17-5.8-8.23-6.91-3.11-.7-3.87-1.14-3.87-2.16v-0.06c0-.82.73-1.43,2.22-1.43a10.891,10.891,0,0,1,6.21,2.19l3.07-4.34a13.912,13.912,0,0,0-9.12-2.95c-5.33,0-8.59,2.98-8.59,7.1v0.07c0,4.53,3.64,5.86,8.36,6.94,3.05,0.73,3.77,1.2,3.77,2.16v0.06c0,0.95-.88,1.52-2.56,1.52a11.521,11.521,0,0,1-7.2-2.66l-3.42,4.09A15.577,15.577,0,0,0,1116.55,3893.25Z" transform="translate(0 -3774)"/>
    </g>
  </g>
  <g id="up_to_60_off" data-name="up to 60 off">
    <path id="_60_OFF_CLEARANCE" data-name="60% OFF CLEARANCE" class="cls-2" d="M129.2,3888.39c14.441,0,25.366-9.39,25.366-22.96v-0.19c0-13.86-10.165-21.17-23.371-21.17a23.322,23.322,0,0,0-13.776,4.27c0.475-5.78,3.42-15.37,13.4-15.37,5.7,0,9.215,1.99,13.586,5.31l7.695-11.29c-5.89-4.65-11.781-7.31-20.806-7.31-19.856,0-29.167,15.76-29.167,36.26v0.19c0,13.19,3.04,20.3,7.886,25.14C114.667,3885.92,120.557,3888.39,129.2,3888.39Zm-0.57-12.53c-7.221,0-11.591-4.27-11.591-9.86v-0.19c0-5.6,4.18-9.59,11.4-9.59s11.59,4.08,11.59,9.68v0.19C140.033,3871.78,135.853,3875.86,128.633,3875.86Zm62.509,12.53c17.766,0,29.641-15.09,29.641-34.35v-0.19c0-19.27-11.875-34.17-29.451-34.17-17.671,0-29.642,15.09-29.642,34.36v0.19C161.69,3873.49,173.375,3888.39,191.142,3888.39Zm0.19-13.19c-8.836,0-14.631-9.01-14.631-21.16v-0.19c0-12.15,5.7-20.97,14.441-20.97s14.631,9.11,14.631,21.16v0.19C205.773,3866.28,200.167,3875.2,191.332,3875.2Zm51.583-21.16c9.691,0,16.247-7.69,16.247-16.99v-0.19c0-9.3-6.461-16.8-16.057-16.8-9.69,0-16.246,7.6-16.246,16.99v0.19C226.859,3846.54,233.32,3854.04,242.915,3854.04Zm0-25.34c3.8,0,6.271,3.89,6.271,8.35v0.19c0,4.27-2.09,8.16-6.081,8.16-3.8,0-6.27-3.89-6.27-8.35v-0.19C236.835,3832.5,238.925,3828.7,242.915,3828.7Zm17.2,22.78-26.6,35.77h11.306l21.946-30.65,26.6-35.78H282.058Zm23.657,36.53c9.69,0,16.246-7.68,16.246-16.98v-0.19c0-9.3-6.46-16.8-16.056-16.8-9.691,0-16.246,7.59-16.246,16.99v0.19C267.712,3880.52,274.172,3888.01,283.768,3888.01Zm0.19-8.63c-3.8,0-6.27-3.89-6.27-8.35v-0.19c0-4.37,2.09-8.17,6.08-8.17,3.8,0,6.27,3.89,6.27,8.36v0.19C290.038,3875.49,287.948,3879.38,283.958,3879.38Zm93.856,9.01c20.521,0,35.437-15.47,35.437-34.35v-0.19c0-18.89-14.726-34.17-35.247-34.17s-35.437,15.47-35.437,34.36v0.19C342.567,3873.11,357.293,3888.39,377.814,3888.39Zm0.19-13.47c-11.781,0-20.141-9.49-20.141-20.88v-0.19c0-11.39,8.17-20.69,19.951-20.69s20.141,9.49,20.141,20.88v0.19C397.955,3865.62,389.785,3874.92,378,3874.92Zm50.632,12.33h14.631v-25.71H475v-13.29H443.267v-14.14h36.007v-13.29H428.636v66.43Zm64.694,0h14.631v-25.71h31.732v-13.29H507.961v-14.14h36.008v-13.29H493.33v66.43Zm-368.158,69.1c8.721,0,13.888-3.1,18.539-8.06l-6.33-6.39c-3.553,3.22-6.718,5.29-11.886,5.29-7.751,0-13.112-6.45-13.112-14.2v-0.12c0-7.75,5.49-14.07,13.112-14.07,4.522,0,8.074,1.94,11.563,5.1l6.33-7.29c-4.2-4.13-9.3-6.97-17.828-6.97-13.887,0-23.576,10.51-23.576,23.35v0.13A22.811,22.811,0,0,0,125.172,3956.35Zm29.718-.77h32.491v-9.04H164.838v-36.13H154.89v45.17Zm43.216,0h34.429v-8.84H207.989v-9.49h21.316v-8.84H207.989v-9.16h24.223v-8.84H198.106v45.17Zm42.637,0h10.141l4.134-10.13h19.12l4.134,10.13h10.4l-19.378-45.49h-9.172Zm17.828-18.91,6.007-14.64,6.007,14.64H258.571Zm40.311,18.91h9.948v-14.46h7.815l9.689,14.46h11.627l-11.045-16.13c5.749-2.13,9.689-6.71,9.689-14v-0.13a14.188,14.188,0,0,0-3.876-10.33c-2.971-2.97-7.428-4.58-13.177-4.58h-20.67v45.17Zm9.948-23.23v-12.97h9.882c4.845,0,7.816,2.19,7.816,6.45v0.13c0,3.81-2.777,6.39-7.622,6.39H308.83Zm36.112,23.23h10.141l4.134-10.13h19.119l4.134,10.13h10.4l-19.378-45.49H364.32Zm17.828-18.91,6.007-14.64,6.007,14.64H362.77Zm40.311,18.91H412.9v-28.72l21.9,28.72h8.462v-45.17H433.44v27.81l-21.187-27.81h-9.172v45.17Zm75.45,0.77c8.72,0,13.888-3.1,18.539-8.06l-6.331-6.39c-3.552,3.22-6.717,5.29-11.885,5.29-7.751,0-13.112-6.45-13.112-14.2v-0.12c0-7.75,5.49-14.07,13.112-14.07,4.522,0,8.074,1.94,11.562,5.1l6.331-7.29c-4.2-4.13-9.3-6.97-17.828-6.97-13.888,0-23.577,10.51-23.577,23.35v0.13A22.812,22.812,0,0,0,478.531,3956.35Zm29.718-.77h34.428v-8.84H518.131v-9.49h21.317v-8.84H518.131v-9.16h24.223v-8.84H508.249v45.17Z" transform="translate(0 -3774)"/>
    <path id="up_to" data-name="up to" class="cls-2" d="M290.945,3809.01c3.3,0,5.42-1.89,5.42-5.65v-7.14H294.15v7.25c0,2.32-1.206,3.49-3.169,3.49-1.981,0-3.187-1.25-3.187-3.58v-7.16h-2.215v7.25C285.579,3807.12,287.668,3809.01,290.945,3809.01Zm9.358-.2h2.215v-4.05h2.5c2.773,0,5.041-1.47,5.041-4.3v-0.03c0-2.54-1.836-4.21-4.789-4.21H300.3v12.59Zm2.215-6.04v-4.54h2.575c1.656,0,2.718.78,2.718,2.25v0.04c0,1.31-1.044,2.25-2.718,2.25h-2.575Zm20.106,6.04h2.233v-10.54h4v-2.05H318.627v2.05h4v10.54Zm14.8,0.21a6.45,6.45,0,0,0,6.608-6.51v-0.03a6.591,6.591,0,0,0-13.18.03v0.04A6.392,6.392,0,0,0,337.421,3809.02Zm0.036-2.05a4.3,4.3,0,0,1-4.285-4.46v-0.03a4.26,4.26,0,0,1,4.249-4.45,4.32,4.32,0,0,1,4.285,4.48v0.04A4.234,4.234,0,0,1,337.457,3806.97Z" transform="translate(0 -3774)"/>
    <path class="cls-2" d="M352,3800.98H543v1.99H352v-1.99Z" transform="translate(0 -3774)"/>
    <path id="Rectangle_1892_copy" data-name="Rectangle 1892 copy" class="cls-2" d="M105,3800.98H278v1.99H105v-1.99Z" transform="translate(0 -3774)"/>
  </g>
  <path id="ExclamationMark_WHT" data-name="ExclamationMark WHT" class="cls-2" d="M733.435,3915.56a39.862,39.862,0,1,1-39.862-40.1A39.977,39.977,0,0,1,733.435,3915.56Zm-2.407-44.19L851.64,3774h70.143l19.93,31.16-189.891,99.78Z" transform="translate(0 -3774)"/>
</svg>
